<svg width="50" height="50" viewBox="0 0 50 50" fill="none" xmlns="http://www.w3.org/2000/svg">
<g clip-path="url(#clip0)">
<path d="M29.5791 5.51251C28.4244 3.81452 27.4056 2.25236 26.4548 0.826045C26.3189 0.622286 26.1152 0.418527 25.9114 0.282687C25.0964 -0.260671 24.0097 0.0110079 23.4663 0.826045C22.5833 2.25236 21.5645 3.7466 20.342 5.51251C14.9763 13.3912 6.96179 25.2772 6.96179 32.0691C6.96179 37.0273 8.99939 41.51 12.2595 44.7701C15.5197 47.9624 20.0024 50 24.9605 50C29.9187 50 34.4014 47.9624 37.6615 44.7022C40.9217 41.4421 42.9593 36.9594 42.9593 32.0012C42.9593 25.2092 34.9447 13.3912 29.5791 5.51251ZM35.2164 42.2571C32.5676 44.906 28.9678 46.4681 24.9605 46.4681C20.9533 46.4681 17.3535 44.8381 14.7046 42.2571C12.0558 39.6082 10.4936 36.0085 10.4936 32.0012C10.4936 26.296 18.1686 14.9534 23.2625 7.41426C23.8738 6.53131 24.4172 5.64835 24.9605 4.90123C25.5039 5.64835 26.0473 6.53131 26.6585 7.41426C31.7525 15.0213 39.4275 26.296 39.4275 32.0012C39.4275 36.0085 37.7974 39.6082 35.2164 42.2571Z" fill="#19A8D5"/>
<path d="M19.022 37V26.884L16.502 28.954L15.242 27.46L19.22 24.256H21.182V37H19.022ZM34.3463 25.714C35.1263 26.902 35.5163 28.54 35.5163 30.628C35.5163 32.716 35.1263 34.354 34.3463 35.542C33.5663 36.73 32.4623 37.324 31.0343 37.324C29.5943 37.324 28.4783 36.73 27.6863 35.542C26.9063 34.354 26.5163 32.716 26.5163 30.628C26.5163 28.54 26.9063 26.902 27.6863 25.714C28.4783 24.526 29.5943 23.932 31.0343 23.932C32.4623 23.932 33.5663 24.526 34.3463 25.714ZM33.2123 32.158C33.2723 31.666 33.3023 31.156 33.3023 30.628C33.3023 30.1 33.2723 29.59 33.2123 29.098C33.1523 28.594 33.0443 28.072 32.8883 27.532C32.7443 26.992 32.5103 26.56 32.1863 26.236C31.8743 25.9 31.4903 25.732 31.0343 25.732C30.5783 25.732 30.1883 25.9 29.8643 26.236C29.5403 26.56 29.3003 26.992 29.1443 27.532C28.9883 28.072 28.8803 28.594 28.8203 29.098C28.7603 29.59 28.7303 30.1 28.7303 30.628C28.7303 31.144 28.7603 31.654 28.8203 32.158C28.8803 32.662 28.9883 33.184 29.1443 33.724C29.3003 34.252 29.5403 34.678 29.8643 35.002C30.1883 35.326 30.5783 35.488 31.0343 35.488C31.4903 35.488 31.8743 35.326 32.1863 35.002C32.5103 34.678 32.7443 34.246 32.8883 33.706C33.0443 33.166 33.1523 32.65 33.2123 32.158Z" fill="#19A8D5"/>
</g>
<defs>
<clipPath id="clip0">
<rect width="50" height="50" fill="white"/>
</clipPath>
</defs>
</svg>
