<svg width="50" height="50" viewBox="0 0 50 50" fill="none" xmlns="http://www.w3.org/2000/svg">
<g clip-path="url(#clip0)">
<path d="M29.5791 5.51251C28.4244 3.81452 27.4056 2.25236 26.4548 0.826045C26.3189 0.622286 26.1152 0.418527 25.9114 0.282687C25.0964 -0.260671 24.0097 0.0110079 23.4663 0.826045C22.5833 2.25236 21.5645 3.7466 20.342 5.51251C14.9763 13.3912 6.96179 25.2772 6.96179 32.0691C6.96179 37.0273 8.99939 41.51 12.2595 44.7701C15.5197 47.9624 20.0024 50 24.9605 50C29.9187 50 34.4014 47.9624 37.6615 44.7022C40.9217 41.4421 42.9593 36.9594 42.9593 32.0012C42.9593 25.2092 34.9447 13.3912 29.5791 5.51251ZM35.2164 42.2571C32.5676 44.906 28.9678 46.4681 24.9605 46.4681C20.9533 46.4681 17.3535 44.8381 14.7046 42.2571C12.0558 39.6082 10.4936 36.0085 10.4936 32.0012C10.4936 26.296 18.1686 14.9534 23.2625 7.41426C23.8738 6.53131 24.4172 5.64835 24.9605 4.90123C25.5039 5.64835 26.0473 6.53131 26.6585 7.41426C31.7525 15.0213 39.4275 26.296 39.4275 32.0012C39.4275 36.0085 37.7974 39.6082 35.2164 42.2571Z" fill="#19A8D5"/>
<path d="M19.464 36V27.008L17.224 28.848L16.104 27.52L19.64 24.672H21.384V36H19.464ZM33.3256 24.672V26.4H28.7016L28.5896 28.848C28.9416 28.752 29.3843 28.704 29.9176 28.704C31.059 28.704 31.9923 29.024 32.7176 29.664C33.4536 30.2933 33.8216 31.168 33.8216 32.288C33.8216 33.504 33.427 34.4747 32.6376 35.2C31.8483 35.9253 30.867 36.288 29.6936 36.288C28.7656 36.288 27.971 36.0693 27.3096 35.632C26.6483 35.1947 26.1683 34.5867 25.8696 33.808L27.6136 33.168C27.7736 33.616 28.0403 33.9787 28.4136 34.256C28.7976 34.5227 29.2403 34.656 29.7416 34.656C30.339 34.656 30.8403 34.464 31.2456 34.08C31.651 33.6853 31.8536 33.1573 31.8536 32.496C31.8536 31.696 31.6083 31.12 31.1176 30.768C30.6376 30.416 30.0403 30.24 29.3256 30.24C28.3763 30.24 27.4963 30.448 26.6856 30.864L26.8776 24.672H33.3256Z" fill="#19A8D5"/>
</g>
<defs>
<clipPath id="clip0">
<rect width="50" height="50" fill="white"/>
</clipPath>
</defs>
</svg>
