<svg width="50" height="50" viewBox="0 0 50 50" fill="none" xmlns="http://www.w3.org/2000/svg">
<g clip-path="url(#clip0)">
<path d="M29.5791 5.51251C28.4244 3.81452 27.4056 2.25236 26.4548 0.826045C26.3189 0.622286 26.1152 0.418527 25.9114 0.282687C25.0964 -0.260671 24.0097 0.0110079 23.4663 0.826045C22.5833 2.25236 21.5645 3.7466 20.342 5.51251C14.9763 13.3912 6.96179 25.2772 6.96179 32.0691C6.96179 37.0273 8.99939 41.51 12.2595 44.7701C15.5197 47.9624 20.0024 50 24.9605 50C29.9187 50 34.4014 47.9624 37.6615 44.7022C40.9217 41.4421 42.9593 36.9594 42.9593 32.0012C42.9593 25.2092 34.9447 13.3912 29.5791 5.51251ZM35.2164 42.2571C32.5676 44.906 28.9678 46.4681 24.9605 46.4681C20.9533 46.4681 17.3535 44.8381 14.7046 42.2571C12.0558 39.6082 10.4936 36.0085 10.4936 32.0012C10.4936 26.296 18.1686 14.9534 23.2625 7.41426C23.8738 6.53131 24.4172 5.64835 24.9605 4.90123C25.5039 5.64835 26.0473 6.53131 26.6585 7.41426C31.7525 15.0213 39.4275 26.296 39.4275 32.0012C39.4275 36.0085 37.7974 39.6082 35.2164 42.2571Z" fill="#19A8D5"/>
<path d="M23.816 31.222V29.494H24.392C26.204 29.494 27.11 28.852 27.11 27.568C27.11 27.016 26.912 26.572 26.516 26.236C26.132 25.9 25.658 25.732 25.094 25.732C24.578 25.732 24.14 25.882 23.78 26.182C23.432 26.482 23.192 26.878 23.06 27.37L21.026 26.848C21.254 25.984 21.752 25.282 22.52 24.742C23.288 24.202 24.176 23.932 25.184 23.932C26.36 23.932 27.338 24.238 28.118 24.85C28.898 25.462 29.288 26.32 29.288 27.424C29.288 28.108 29.078 28.72 28.658 29.26C28.238 29.788 27.686 30.136 27.002 30.304V30.34C27.782 30.496 28.412 30.85 28.892 31.402C29.384 31.954 29.63 32.62 29.63 33.4C29.63 34.636 29.186 35.602 28.298 36.298C27.41 36.982 26.372 37.324 25.184 37.324C24.056 37.324 23.084 37.078 22.268 36.586C21.452 36.094 20.882 35.338 20.558 34.318L22.574 33.688C22.73 34.216 23.03 34.648 23.474 34.984C23.918 35.32 24.464 35.488 25.112 35.488C25.748 35.488 26.294 35.314 26.75 34.966C27.218 34.618 27.452 34.09 27.452 33.382C27.452 32.866 27.278 32.44 26.93 32.104C26.594 31.756 26.204 31.522 25.76 31.402C25.328 31.282 24.86 31.222 24.356 31.222H23.816Z" fill="#19A8D5"/>
</g>
<defs>
<clipPath id="clip0">
<rect width="50" height="50" fill="white"/>
</clipPath>
</defs>
</svg>
