<svg width="50" height="50" viewBox="0 0 50 50" fill="none" xmlns="http://www.w3.org/2000/svg">
<g clip-path="url(#clip0)">
<path d="M29.5791 5.51251C28.4244 3.81452 27.4056 2.25236 26.4548 0.826045C26.3189 0.622286 26.1152 0.418527 25.9114 0.282687C25.0964 -0.260671 24.0097 0.0110079 23.4663 0.826045C22.5833 2.25236 21.5645 3.7466 20.342 5.51251C14.9763 13.3912 6.96179 25.2772 6.96179 32.0691C6.96179 37.0273 8.99939 41.51 12.2595 44.7701C15.5197 47.9624 20.0024 50 24.9605 50C29.9187 50 34.4014 47.9624 37.6615 44.7022C40.9217 41.4421 42.9593 36.9594 42.9593 32.0012C42.9593 25.2092 34.9447 13.3912 29.5791 5.51251ZM35.2164 42.2571C32.5676 44.906 28.9678 46.4681 24.9605 46.4681C20.9533 46.4681 17.3535 44.8381 14.7046 42.2571C12.0558 39.6082 10.4936 36.0085 10.4936 32.0012C10.4936 26.296 18.1686 14.9534 23.2625 7.41426C23.8738 6.53131 24.4172 5.64835 24.9605 4.90123C25.5039 5.64835 26.0473 6.53131 26.6585 7.41426C31.7525 15.0213 39.4275 26.296 39.4275 32.0012C39.4275 36.0085 37.7974 39.6082 35.2164 42.2571Z" fill="#19A8D5"/>
<path d="M25.31 24.256H27.938L24.68 28.972L24.698 28.99C25.046 28.846 25.496 28.774 26.048 28.774C27.176 28.774 28.136 29.17 28.928 29.962C29.72 30.742 30.116 31.708 30.116 32.86C30.116 34.192 29.672 35.272 28.784 36.1C27.908 36.916 26.804 37.324 25.472 37.324C24.14 37.324 23.03 36.904 22.142 36.064C21.254 35.224 20.81 34.186 20.81 32.95C20.81 32.266 20.912 31.654 21.116 31.114C21.332 30.562 21.668 29.92 22.124 29.188L25.31 24.256ZM23.006 33.004C23.006 33.688 23.228 34.276 23.672 34.768C24.128 35.248 24.722 35.488 25.454 35.488C26.186 35.488 26.774 35.26 27.218 34.804C27.674 34.336 27.902 33.724 27.902 32.968C27.902 32.248 27.68 31.654 27.236 31.186C26.792 30.718 26.21 30.484 25.49 30.484C24.758 30.484 24.158 30.718 23.69 31.186C23.234 31.654 23.006 32.26 23.006 33.004Z" fill="#19A8D5"/>
</g>
<defs>
<clipPath id="clip0">
<rect width="50" height="50" fill="white"/>
</clipPath>
</defs>
</svg>
