<svg width="50" height="50" viewBox="0 0 50 50" fill="none" xmlns="http://www.w3.org/2000/svg">
<g clip-path="url(#clip0)">
<path d="M29.5791 5.51251C28.4244 3.81452 27.4056 2.25236 26.4548 0.826045C26.3189 0.622286 26.1152 0.418527 25.9114 0.282687C25.0964 -0.260671 24.0097 0.0110079 23.4663 0.826045C22.5833 2.25236 21.5645 3.7466 20.342 5.51251C14.9763 13.3912 6.96179 25.2772 6.96179 32.0691C6.96179 37.0273 8.99939 41.51 12.2595 44.7701C15.5197 47.9624 20.0024 50 24.9605 50C29.9187 50 34.4014 47.9624 37.6615 44.7022C40.9217 41.4421 42.9593 36.9594 42.9593 32.0012C42.9593 25.2092 34.9447 13.3912 29.5791 5.51251ZM35.2164 42.2571C32.5676 44.906 28.9678 46.4681 24.9605 46.4681C20.9533 46.4681 17.3535 44.8381 14.7046 42.2571C12.0558 39.6082 10.4936 36.0085 10.4936 32.0012C10.4936 26.296 18.1686 14.9534 23.2625 7.41426C23.8738 6.53131 24.4172 5.64835 24.9605 4.90123C25.5039 5.64835 26.0473 6.53131 26.6585 7.41426C31.7525 15.0213 39.4275 26.296 39.4275 32.0012C39.4275 36.0085 37.7974 39.6082 35.2164 42.2571Z" fill="#19A8D5"/>
<path d="M25.49 23.932C26.642 23.932 27.602 24.244 28.37 24.868C29.138 25.492 29.522 26.332 29.522 27.388C29.522 28.108 29.342 28.72 28.982 29.224C28.622 29.728 28.142 30.076 27.542 30.268V30.304C28.226 30.472 28.796 30.838 29.252 31.402C29.708 31.966 29.936 32.632 29.936 33.4C29.936 34.624 29.51 35.584 28.658 36.28C27.818 36.976 26.762 37.324 25.49 37.324C24.218 37.324 23.156 36.976 22.304 36.28C21.464 35.584 21.044 34.624 21.044 33.4C21.044 32.62 21.272 31.954 21.728 31.402C22.196 30.838 22.766 30.472 23.438 30.304V30.268C22.118 29.788 21.458 28.858 21.458 27.478C21.458 26.422 21.842 25.57 22.61 24.922C23.39 24.262 24.35 23.932 25.49 23.932ZM25.49 25.714C24.95 25.714 24.506 25.882 24.158 26.218C23.822 26.542 23.654 26.974 23.654 27.514C23.654 28.042 23.822 28.486 24.158 28.846C24.494 29.194 24.938 29.368 25.49 29.368C26.006 29.368 26.444 29.188 26.804 28.828C27.164 28.468 27.344 28.03 27.344 27.514C27.344 26.986 27.158 26.554 26.786 26.218C26.426 25.882 25.994 25.714 25.49 25.714ZM25.49 31.204C24.866 31.204 24.338 31.408 23.906 31.816C23.486 32.224 23.276 32.746 23.276 33.382C23.276 34.03 23.48 34.546 23.888 34.93C24.308 35.314 24.842 35.506 25.49 35.506C26.126 35.506 26.648 35.314 27.056 34.93C27.476 34.546 27.686 34.03 27.686 33.382C27.686 32.758 27.47 32.242 27.038 31.834C26.618 31.414 26.102 31.204 25.49 31.204Z" fill="#19A8D5"/>
</g>
<defs>
<clipPath id="clip0">
<rect width="50" height="50" fill="white"/>
</clipPath>
</defs>
</svg>
