<svg width="40" height="40" viewBox="0 0 40 40" fill="none" xmlns="http://www.w3.org/2000/svg">
<path d="M19.3763 31.7996H16.8812V27.5112H10.6434C10.2108 27.5112 9.81 27.287 9.58224 26.9191C9.35449 26.5513 9.33373 26.092 9.52735 25.7057L17.0127 10.7349C17.271 10.2172 17.8521 9.94788 18.415 10.0782C18.9779 10.2122 19.3763 10.7142 19.3763 11.2929V31.7996ZM12.6622 25.0161H16.8812V16.5779L12.6622 25.0161Z" fill="#19A8D5" fill-opacity="0.5"/>
<path d="M6.27786 12.5154C9.72291 12.5154 12.5157 9.72266 12.5157 6.27761C12.5157 2.83256 9.72291 0.0397949 6.27786 0.0397949C2.83281 0.0397949 0.0400391 2.83256 0.0400391 6.27761C0.0400391 9.72266 2.83281 12.5154 6.27786 12.5154Z" fill="#FF0080"/>
<path d="M38.7152 29.9823H31.749C36.3047 27.1079 39.339 22.0328 39.339 16.2591C39.339 7.31656 32.0632 0.0407715 23.1207 0.0407715C22.431 0.0407715 21.8731 0.598682 21.8731 1.28833V29.9823H5.65477C5.21124 29.9823 4.80064 30.2174 4.57648 30.6013L0.210004 38.0867C-0.0141586 38.4729 -0.0165534 38.9492 0.206411 39.3366C0.429376 39.7241 0.841171 39.9628 1.2883 39.9628H31.2298C36.0446 39.9628 39.9628 36.0447 39.9628 31.2299C39.9628 30.5402 39.4049 29.9823 38.7152 29.9823ZM24.3682 2.59199C31.3528 3.22435 36.8439 9.11245 36.8439 16.2591C36.8439 23.4057 31.353 29.2938 24.3682 29.9262V2.59199ZM31.2298 37.4677H3.46066L6.37117 32.4774H37.3421C36.7622 35.3209 34.2427 37.4677 31.2298 37.4677Z" fill="#19A8D5"/>
</svg>
