<svg width="39" height="41" viewBox="0 0 39 41" fill="none" xmlns="http://www.w3.org/2000/svg">
<g clip-path="url(#clip0)">
<path d="M17.8 10.1001C16.8 10.1001 16.8 11.7001 17.8 11.7001C18.8 11.6001 18.8 10.1001 17.8 10.1001Z" fill="#FF0080"/>
<path d="M17.8 12.0001C16.3 12.0001 16.3 9.6001 17.8 9.6001C19.3 9.7001 19.3 12.0001 17.8 12.0001ZM17.8 10.5001C17.3 10.5001 17.3 11.3001 17.8 11.3001C18.3 11.2001 18.3 10.5001 17.8 10.5001Z" fill="#FF0080"/>
<path d="M17.8001 22.6001C16.6001 22.6001 16.6001 25.7001 17.8001 25.7001C19.0001 25.7001 19.0001 22.6001 17.8001 22.6001Z" fill="#7FC7DD"/>
<path d="M17.8001 26.1002C16.1001 26.1002 16.1001 22.2002 17.8001 22.2002C19.5001 22.2002 19.5001 26.1002 17.8001 26.1002ZM17.8001 23.0002C17.2001 23.0002 17.2001 25.3002 17.8001 25.3002C18.4001 25.3002 18.4001 23.0002 17.8001 23.0002Z" fill="#7FC7DD"/>
<path d="M17.8001 17.8999C16.6001 17.8999 16.6001 20.9999 17.8001 20.9999C19.0001 20.9999 19.0001 17.8999 17.8001 17.8999Z" fill="#7FC7DD"/>
<path d="M17.8001 21.4C16.1001 21.4 16.1001 17.5 17.8001 17.5C19.5001 17.5 19.5001 21.4 17.8001 21.4ZM17.8001 18.3C17.2001 18.3 17.2001 20.6 17.8001 20.6C18.4001 20.6 18.4001 18.3 17.8001 18.3Z" fill="#7FC7DD"/>
<path d="M17.8001 13.2C16.6001 13.2 16.6001 16.3 17.8001 16.3C19.0001 16.3 19.0001 13.2 17.8001 13.2Z" fill="#FF0080"/>
<path d="M17.8001 16.7C16.1001 16.7 16.1001 12.8 17.8001 12.8C19.5001 12.8 19.5001 16.7 17.8001 16.7ZM17.8001 13.6C17.2001 13.6 17.2001 15.9 17.8001 15.9C18.4001 15.9 18.4001 13.6 17.8001 13.6Z" fill="#FF0080"/>
<path d="M14.7001 6.90015C13.8001 6.90015 13.9001 8.00015 13.8001 8.60015C13.7001 9.90015 13.5001 11.1001 13.0001 12.3001C12.7001 12.9001 11.8001 14.5001 12.9001 14.7001C13.5001 14.8001 13.9001 14.2001 14.1001 13.8001C14.6001 12.9001 16.8001 6.90015 14.7001 6.90015Z" fill="#7FC7DD"/>
<path d="M13.1002 15.2001C11.0002 15.1001 12.6002 12.3001 12.9002 11.3001C13.3002 10.1001 13.1002 8.60009 13.6002 7.40009C14.0002 6.40009 15.2002 6.20009 15.7002 7.30009C16.4002 8.70009 15.5002 11.0001 15.1002 12.4001C14.9002 13.2001 14.6002 14.1001 14.0002 14.7001C13.8002 15.0001 13.5002 15.1001 13.1002 15.2001C13.1002 15.2001 12.4002 15.1001 12.4002 15.2001C12.5002 15.0001 13.3002 15.3001 13.5002 15.2001C13.4002 15.2001 13.2002 15.2001 13.1002 15.2001C11.1002 15.1001 14.7002 15.2001 13.1002 15.2001ZM14.7002 7.30009C14.1002 7.30009 14.2002 8.50009 14.2002 8.90009C14.1002 10.0001 13.9002 11.0001 13.4002 12.0001C13.3002 12.3001 12.3002 14.4001 13.3002 14.2001C13.7002 14.1001 13.8002 13.5001 13.9002 13.2001C14.1002 12.6001 15.9002 7.30009 14.7002 7.30009Z" fill="#7FC7DD"/>
<path d="M23.2002 13.6C22.6002 11.9 21.9002 10.3 21.8002 8.40005C21.8002 8.00005 21.8002 7.30005 21.4002 7.00005C20.9002 6.70005 20.4002 7.00005 20.2002 7.40005C20.0002 7.90005 20.2002 8.70005 20.2002 9.20005C20.3002 10.2 20.5002 11.1 20.8002 12C21.0002 12.7 21.3002 13.9 22.0002 14.3C22.6002 15 23.7002 14.3 23.2002 13.6C23.4002 13.9 23.1002 13.3 23.1002 13.2C23.1002 13.3 23.3002 13.8 23.2002 13.6C22.5002 11.9 23.4002 14 23.2002 13.6Z" fill="#7FC7DD"/>
<path d="M22.5003 15.2001C20.8003 15.2001 20.4003 12.4001 20.2003 11.1001C19.9003 9.90009 18.8003 6.70009 20.9003 6.50009C21.7003 6.40009 22.0003 7.30009 22.1003 8.00009C22.3003 9.10009 22.3003 10.3001 22.7003 11.4001C23.1003 12.3001 24.6003 15.2001 22.5003 15.2001ZM20.9003 7.30009C19.8003 7.30009 21.4003 13.4001 22.0003 14.0001C23.1003 15.1001 22.2003 12.4001 22.1003 12.1001C21.7003 11.1001 21.4003 10.1001 21.3003 9.00009C21.4003 8.70009 21.6003 7.30009 20.9003 7.30009Z" fill="#7FC7DD"/>
<path d="M38.0002 21C37.6002 19.2 36.0002 21.2 35.5002 21.8C34.4002 23.3 33.7002 25 33.0002 26.8C32.0002 29.4 30.9002 32.2001 28.8002 34C27.1002 35.5 24.5002 36.2001 22.4002 35C19.8002 33.6 20.3002 30.1 20.8002 27.7C21.7002 28 22.6002 28.5 23.5002 28.6C24.8002 28.7 24.8002 27.7 24.2002 26.8C23.9002 26.3 23.3002 25.7 23.5002 25.1C23.7002 24.3 24.6002 25 25.1002 25.2C26.8002 25.9 28.6002 25.5 30.1002 24.5C32.9002 22.4 34.1002 18.6 34.2002 15.2C34.2002 13.7 34.1002 12 32.8002 10.9C32.1002 10.3 31.3002 10.1 30.5002 9.60005C29.7002 9.10005 29.0002 8.40005 28.3002 7.70005C25.5002 5.00005 22.4002 2.40005 18.9002 0.600048C17.1002 -0.399952 15.3002 1.20005 13.8002 2.20005C12.3002 3.50005 10.7002 4.70005 9.20017 6.00005C7.90017 7.30005 6.70017 8.80005 5.00017 9.80005C3.70017 10.6 2.20017 11.1 1.60017 12.6C0.300172 15.7 1.80017 20.2 3.70017 22.8C4.80017 24.3 6.30017 25.6 8.30017 25.8C9.20017 25.9 10.1002 25.7 10.9002 25.2C11.4002 24.9 12.1002 24.6 12.0002 25.5C11.9002 26.3 9.70017 28.6 11.4002 28.9C12.4002 29.1 13.6002 28.3 14.5002 28C15.0002 33 17.1002 38.8 22.6002 40.1C25.6002 40.8 29.0002 40.1001 31.4002 38.2001C33.9002 36.3 35.4002 33.4 36.6002 30.6C37.9002 27.4 38.6002 24.1 37.9002 20.7C38.0002 21.3 38.2002 21.9 38.3002 22.5C38.2002 22 38.1002 21.5 38.0002 21C37.5002 18.5 38.9002 25 38.0002 21ZM36.2002 27.3C34.6002 31.5 32.7002 36.5 28.1002 38.1C25.6002 39 22.6002 38.8 20.5002 37.2001C18.5002 35.8 17.5002 33.4 16.9002 31.1C16.7002 30.2 16.4002 29.2 16.4002 28.3C16.3002 27.7 16.5002 26.8 16.0002 26.3C15.3002 25.6 14.0002 26.4 13.3002 26.7C13.7002 25.9 14.0002 24.7 13.5002 24C12.7002 22.8 11.2002 23.4 10.2002 23.8C7.60017 24.8 5.60017 22.7 4.50017 20.6C3.50017 18.7 2.80017 16.3 3.10017 14.2C3.30017 13 4.00017 12.2 5.00017 11.6C6.40017 10.8 7.60017 9.90005 8.80017 8.70005C11.3002 6.30005 13.9002 4.30005 16.8002 2.50005C17.4002 2.10005 17.8002 1.80005 18.6002 2.10005C19.3002 2.40005 20.1002 3.00005 20.8002 3.50005C22.2002 4.40005 23.5002 5.40005 24.7002 6.50005C25.9002 7.50005 27.0002 8.70005 28.2002 9.80005C29.2002 10.8 30.4002 11.3 31.6002 12C34.0002 13.5 33.0002 17.3 32.2002 19.4C31.3002 21.8 29.2002 25 26.2002 24C25.2002 23.6 23.6002 22.8 22.7002 23.9C22.1002 24.7 22.4002 26 22.8002 26.8C21.6002 26.4 20.1002 25.5 19.6002 27.3C19.2002 28.7 19.2002 30.5 19.3002 32C19.6002 35.4 22.2002 37.4001 25.5002 37.2001C28.7002 37 31.1002 34.9 32.7002 32.2C34.4002 29.2 34.9002 25.6 37.0002 22.8C36.9002 24.3 36.7002 25.9 36.2002 27.3C36.3002 27.1 36.4002 26.9 36.4002 26.7C36.1002 27.5 35.7002 28.3 35.5002 29C35.7002 28.3 36.1002 27.7 36.2002 27.1C36.2002 27.2 36.2002 27.3 36.2002 27.3C34.7002 31.4 36.7002 25.9 36.2002 27.3Z" fill="#19A8D5"/>
<path d="M24.8002 40.6001C18.2002 40.6001 14.9002 34.1001 14.2002 28.4001C13.2002 28.7001 11.3002 29.9001 10.5002 28.7001C9.80016 27.6001 11.2002 26.1001 11.6002 25.2001C7.40016 28.4001 3.30016 23.7001 1.80016 20.0001C1.00016 18.0001 0.600164 15.5001 1.10016 13.3001C1.40016 12.0001 2.10016 11.0001 3.20016 10.3001C3.80016 9.9001 4.40016 9.7001 5.00016 9.3001C5.70016 8.9001 6.30016 8.3001 6.80016 7.7001C9.10016 5.5001 11.5002 3.4001 14.2002 1.7001C15.4002 0.900101 16.9002 -0.199899 18.4002 0.100101C19.8002 0.400101 21.2002 1.6001 22.4002 2.4001C25.1002 4.2001 27.3002 6.5001 29.7002 8.6001C30.7002 9.5001 32.1002 9.9001 33.1002 10.8001C34.2002 11.7001 34.6002 13.0001 34.6002 14.4001C34.7002 17.6001 33.9002 20.9001 31.8002 23.4001C29.9002 25.7001 26.6002 27.0001 23.8002 25.2001C24.3002 26.1001 25.8002 27.6001 24.9002 28.8001C24.0002 30.0001 22.1002 28.7001 21.1002 28.4001C20.8002 30.2001 20.4002 32.6001 21.8002 34.1001C23.0002 35.4001 25.1002 35.4001 26.7002 34.9001C30.2002 33.8001 31.5002 29.9001 32.6002 26.9001C33.3002 24.9001 34.2002 23.0001 35.4002 21.2001C35.8002 20.6001 36.5002 19.7001 37.3002 19.8001C38.2002 19.9001 38.4002 21.1001 38.5002 21.8001C39.3002 26.1001 37.4002 30.6001 35.2002 34.2001C33.0002 37.9001 29.3002 40.6001 24.8002 40.6001ZM14.9002 27.3001C15.4002 31.9001 16.8002 37.3001 21.5002 39.2001C26.7002 41.3001 32.0002 38.0001 34.7002 33.6001C36.3002 30.9001 37.6002 27.9001 37.9002 24.7001C38.0002 23.9001 38.3002 21.3001 37.5002 20.8001C36.8002 20.4001 36.0002 21.9001 35.7002 22.3001C33.0002 26.0001 33.0002 31.4001 29.2002 34.5001C27.3002 36.0001 24.2002 36.8001 22.0002 35.4001C19.4002 33.7001 20.0002 30.0001 20.6002 27.4001C21.5002 27.7001 22.4002 28.1001 23.4002 28.3001C23.9002 28.5001 24.5002 28.6001 24.4002 27.8001C24.2002 26.9001 22.7002 25.8001 23.3002 24.8001C23.7002 24.2001 24.4002 24.6001 24.9002 24.8001C25.7002 25.2001 26.6002 25.4001 27.5002 25.3001C29.1002 25.1001 30.4002 24.1001 31.3002 22.9001C33.2002 20.4001 34.3002 17.0001 33.9002 13.9001C33.7002 12.3001 32.9002 11.5001 31.6002 10.8001C30.1002 9.9001 28.9002 9.0001 27.8002 7.9001C25.1002 5.3001 22.2002 3.2001 19.1002 1.2001C18.5002 0.800101 18.0002 0.600101 17.3002 0.800101C16.6002 1.1001 15.9002 1.6001 15.3002 2.0001C13.6002 3.0001 12.0002 4.2001 10.5002 5.5001C9.00016 6.7001 7.80016 8.1001 6.30016 9.3001C5.10016 10.3001 3.40016 10.8001 2.40016 12.0001C1.40016 13.3001 1.60016 15.1001 1.80016 16.6001C2.10016 18.3001 2.50016 20.0001 3.40016 21.6001C4.30016 23.1001 5.60016 24.6001 7.30016 25.1001C8.20016 25.4001 9.20016 25.3001 10.1002 25.0001C10.6002 24.8001 11.7002 24.0001 12.2002 24.6001C12.9002 25.3001 11.5002 26.8001 11.3002 27.5001C10.7002 29.3001 14.3002 27.5001 14.9002 27.3001C15.4002 31.6001 14.0002 27.6001 14.9002 27.3001C15.4002 31.7001 13.9002 27.6001 14.9002 27.3001ZM24.8002 39.1001C21.4002 39.1001 18.7002 36.8001 17.3002 33.9001C16.4002 32.1001 16.0002 30.1001 15.8002 28.1001C15.7002 27.5001 15.9002 26.6001 15.2002 26.5001C14.4002 26.4001 13.1002 27.2001 12.4002 27.4001C12.8002 26.5001 13.8002 25.3001 13.1002 24.3001C12.2002 23.0001 10.6002 24.2001 9.40016 24.4001C6.70016 24.9001 4.70016 22.4001 3.70016 20.3001C3.00016 18.9001 2.70016 17.3001 2.60016 15.7001C2.50016 14.5001 2.50016 13.2001 3.30016 12.3001C4.30016 11.2001 5.90016 10.8001 7.00016 9.8001C8.30016 8.7001 9.40016 7.5001 10.6002 6.4001C11.9002 5.3001 13.2002 4.3001 14.6002 3.4001C15.2002 3.0001 15.8002 2.6001 16.4002 2.3001C16.9002 2.0001 17.4002 1.5001 18.1002 1.6001C18.6002 1.7001 19.1002 2.1001 19.5002 2.4001C20.2002 2.8001 20.8002 3.2001 21.5002 3.7001C22.9002 4.7001 24.3002 5.8001 25.6002 6.9001C26.8002 7.9001 27.8002 9.1001 29.0002 10.1001C30.0002 10.9001 31.4002 11.2001 32.3002 12.1001C34.1002 13.9001 33.2002 17.5001 32.4002 19.6001C31.5002 22.0001 29.4002 25.0001 26.4002 24.5001C25.3002 24.3001 23.5002 22.8001 22.6002 24.4001C22.1002 25.3001 23.0002 26.6001 23.4002 27.5001C22.5002 27.2001 20.5002 25.8001 19.9002 27.1001C19.3002 28.5001 19.3002 30.7001 19.5002 32.2001C19.9002 34.8001 21.9002 36.7001 24.6002 36.8001C29.7002 37.0001 32.1002 32.6001 33.8002 28.5001C34.8002 26.2001 35.6002 23.8001 37.1002 21.8001C37.5002 26.1001 36.0002 30.3001 33.8002 33.9001C31.7002 36.9001 28.6002 39.1001 24.8002 39.1001ZM15.2002 25.6001C16.6002 25.6001 16.5002 27.4001 16.6002 28.4001C16.8002 30.2001 17.3002 32.1001 18.1002 33.8001C19.4002 36.4001 21.7002 38.2001 24.7002 38.3001C27.9002 38.4001 30.6002 36.7001 32.5002 34.2001C34.6002 31.3001 36.3002 27.7001 36.4002 24.1001C34.9002 26.8001 34.2002 29.9001 32.7002 32.6001C31.1002 35.4001 28.5002 37.5001 25.1002 37.6001C21.9002 37.7001 19.4002 35.9001 18.7002 32.8001C18.3002 31.1001 18.4002 29.2001 18.8002 27.5001C19.2002 25.8001 20.1002 25.5001 21.6002 26.1001C21.1002 25.0001 21.7002 23.7001 22.7002 23.2001C24.0002 22.5001 25.1002 23.6001 26.4002 23.8001C28.9002 24.1001 30.6002 21.5001 31.4002 19.6001C32.1002 17.8001 33.1002 14.0001 31.4002 12.5001C30.5002 11.7001 29.2002 11.4001 28.3002 10.7001C27.2002 9.8001 26.3002 8.7001 25.3002 7.8001C23.3002 6.0001 21.0002 4.1001 18.6002 2.8001C17.4002 2.2001 16.5002 3.1001 15.5002 3.8001C14.2002 4.6001 13.0002 5.5001 11.9002 6.5001C10.7002 7.5001 9.70016 8.6001 8.50016 9.6001C7.40016 10.6001 6.30016 11.3001 5.00016 12.0001C3.80016 12.7001 3.30016 13.4001 3.30016 14.8001C3.30016 16.2001 3.50016 17.7001 3.90016 19.1001C4.70016 21.0001 6.30016 24.0001 8.90016 23.7001C10.1002 23.5001 11.2002 22.5001 12.5002 23.0001C13.7002 23.4001 14.4002 24.9001 13.9002 26.1001C14.3002 25.9001 14.8002 25.6001 15.2002 25.6001Z" fill="#19A8D5"/>
</g>
<defs>
<clipPath id="clip0">
<rect x="0.900146" width="37.9" height="40.6" fill="white"/>
</clipPath>
</defs>
</svg>
