<svg width="42" height="41" viewBox="0 0 42 41" fill="none" xmlns="http://www.w3.org/2000/svg">
<g clip-path="url(#clip0)">
<path d="M23.5645 12.6456L22.5989 9.75005H14.4007L13.4351 12.6456L11.0645 11.8546L12.3145 8.10465C12.4841 7.59445 12.9615 7.25024 13.4999 7.25024H23.4999C24.0383 7.25024 24.5155 7.59445 24.6853 8.10465L25.9353 11.8546L23.5645 12.6456Z" fill="#19A8D5" fill-opacity="0.5"/>
<path d="M32.2497 37.873H20.1663V35.373H32.2497C35.6957 35.373 38.4997 32.569 38.4997 29.123V1H40.9996V29.123C40.9996 33.9474 37.0739 37.873 32.2497 37.873Z" fill="#19A8D5"/>
<path d="M23.3489 40.9999H13.6501C12.8765 40.9999 12.2495 40.3729 12.2495 39.5993V33.6467C12.2495 32.8731 12.8765 32.2461 13.6501 32.2461H23.3489C24.1225 32.2461 24.7495 32.8731 24.7495 33.6467V39.5993C24.7495 40.3729 24.1225 40.9999 23.3489 40.9999Z" fill="#FF0080"/>
<path d="M26.0002 30.9961H25.6382C23.9256 30.9961 22.3154 30.3283 21.1038 29.1175L18.5 26.5137L15.8956 29.1175C14.684 30.3285 13.074 30.9961 11.3612 30.9961C8.5414 30.9961 5.79 29.8255 3.8118 27.7845C1.9184 25.8301 0.921796 23.3045 1.0048 20.6727C1.0848 18.1275 2.123 15.7301 3.9284 13.9247C5.8174 12.0363 8.329 10.9963 11 10.9963H25.6386C28.4584 10.9963 31.2098 12.1669 33.1874 14.2079C35.0808 16.1623 36.0774 18.6879 35.9944 21.3197C35.9144 23.8649 34.8762 26.2623 33.0708 28.0677C31.1822 29.9561 28.6712 30.9961 26.0002 30.9961ZM18.5002 23.4961C18.82 23.4961 19.1398 23.6181 19.384 23.8623L22.8716 27.3499C23.6004 28.0787 24.6086 28.4961 25.6384 28.4961H26.0004C28.0036 28.4961 29.8872 27.7161 31.3038 26.3001C32.6576 24.9451 33.4364 23.1495 33.4962 21.2415C33.5578 19.2909 32.8108 17.4109 31.3924 15.9473C29.883 14.3897 27.7858 13.4961 25.6392 13.4961H11.0006C8.9968 13.4961 7.1132 14.2761 5.6966 15.6921C4.3428 17.0471 3.564 18.8427 3.5042 20.7507C3.4426 22.7013 4.1896 24.5813 5.608 26.0449C7.1174 27.6025 9.2146 28.4961 11.3618 28.4961C12.3914 28.4961 13.3998 28.0787 14.1286 27.3499L17.6168 23.8623C17.8606 23.6181 18.1804 23.4961 18.5002 23.4961Z" fill="#19A8D5"/>
</g>
<defs>
<clipPath id="clip0">
<rect width="42" height="41" fill="white"/>
</clipPath>
</defs>
</svg>
