<svg width="40" height="40" viewBox="0 0 40 40" fill="none" xmlns="http://www.w3.org/2000/svg">
<path d="M9.23358 39.617C7.20539 39.617 5.55542 37.967 5.55542 35.9389V15.0959H8.00753V35.9389C8.00753 36.6152 8.55778 37.1649 9.23358 37.1649C9.90938 37.1649 10.4596 36.6152 10.4596 35.9389V32.2607H12.9117V35.9389C12.9117 37.967 11.2618 39.617 9.23358 39.617Z" fill="#19A8D5"/>
<path d="M23.9462 39.617C21.918 39.617 20.2681 37.967 20.2681 35.9389V15.0959H22.7202V35.9389C22.7202 36.6152 23.2704 37.1649 23.9462 37.1649C24.622 37.1649 25.1723 36.6152 25.1723 35.9389V32.2607H27.6244V35.9389C27.6244 37.967 25.9744 39.617 23.9462 39.617Z" fill="#19A8D5"/>
<path d="M21.4943 16.322C18.1143 16.322 15.364 13.5717 15.364 10.1917V6.51357C15.364 3.13358 18.1143 0.383301 21.4943 0.383301C24.8743 0.383301 27.6246 3.13358 27.6246 6.51357V10.1917C27.6246 13.5717 24.8743 16.322 21.4943 16.322ZM21.4943 2.83541C19.4661 2.83541 17.8161 4.48538 17.8161 6.51357V10.1917C17.8161 12.2199 19.4661 13.8699 21.4943 13.8699C23.5225 13.8699 25.1724 12.2199 25.1724 10.1917V6.51357C25.1724 4.48538 23.5225 2.83541 21.4943 2.83541Z" fill="#FF0080"/>
<path d="M10.4598 0.383301V11.4178C10.4598 12.7696 9.36008 13.8699 8.00769 13.8699V0.383301H5.55558V13.8699C4.2032 13.8699 3.10347 12.7696 3.10347 11.4178V0.383301H0.651367V11.4178C0.651367 14.1226 2.8514 16.322 5.55558 16.322H8.00769C10.7119 16.322 12.9119 14.1226 12.9119 11.4178V0.383301H10.4598Z" fill="#7FC7DD"/>
</svg>
