<svg width="40" height="40" viewBox="0 0 40 40" fill="none" xmlns="http://www.w3.org/2000/svg">
<path d="M9.96151 20.0002C15.3786 20.0002 19.7699 15.6088 19.7699 10.1917C19.7699 4.77468 15.3786 0.383301 9.96151 0.383301C4.54446 0.383301 0.153076 4.77468 0.153076 10.1917C0.153076 15.6088 4.54446 20.0002 9.96151 20.0002Z" fill="#FF0080"/>
<path d="M20.2341 21.2263H28.731V23.6784H20.2341V21.2263Z" fill="#7FC7DD"/>
<path d="M5.90942 29.8086H14.4063V32.2607H5.90942V29.8086Z" fill="#7FC7DD"/>
<path d="M38.1609 39.617H1.37926C0.940429 39.617 0.534557 39.3824 0.316025 39.0017C0.0974929 38.6209 0.0986699 38.1528 0.320144 37.7733L8.90252 23.0606C9.34194 22.3063 10.5811 22.3063 11.0206 23.0606L14.9053 29.7201L23.6099 14.4879C23.8272 14.1071 24.2319 13.8713 24.6707 13.8701C25.1233 13.9276 25.5155 14.1024 25.7352 14.482L39.2218 37.777C39.4415 38.1566 39.442 38.6234 39.2229 39.003C39.0044 39.3836 38.5991 39.617 38.1609 39.617ZM19.2481 37.1649H36.0344L24.6813 17.5553L16.3318 32.1662L19.2481 37.1649ZM3.51416 37.1649H16.4093L9.96163 26.1112L3.51416 37.1649Z" fill="#19A8D5"/>
</svg>
