<svg width="61" height="30" viewBox="0 0 61 30" fill="none" xmlns="http://www.w3.org/2000/svg">
<path d="M22.9221 29.187C22.9221 29.187 27.6818 14.3337 34.1056 9.6215C40.5294 4.90929 38.8116 0 38.8116 0C38.8116 0 42.3903 2.83091 43.1418 8.67189C43.8934 14.5129 46.7205 20.9451 55.3989 21.6976C64.0773 22.4502 59.6755 27.6103 49.9414 28.3091C40.2073 29.0078 31.7257 29.8858 22.9221 29.187Z" fill="url(#paint0_linear)"/>
<path d="M0.555176 25.4781C0.555176 25.4781 9.78825 29.2586 30.5269 29.4378C51.2655 29.617 58.2261 27.3594 59.7291 24.9048C61.2322 22.4501 53.8958 24.5285 48.0446 23.0235C35.2329 18.8667 32.5846 11.8969 26.3756 6.03802C26.3756 6.03802 22.4211 2.83085 21.097 2.45459C21.097 2.45459 23.7273 5.2855 21.4727 9.44227C19.2181 13.599 19.7728 22.6472 20.1486 24.3493C20.5423 26.0335 10.164 27.3594 0.555176 25.4781Z" fill="url(#paint1_linear)"/>
<defs>
<linearGradient id="paint0_linear" x1="46.6934" y1="-0.0114529" x2="42.5219" y2="21.2717" gradientUnits="userSpaceOnUse">
<stop stop-color="#5BB3FF"/>
<stop offset="1" stop-color="#19A8D5"/>
</linearGradient>
<linearGradient id="paint1_linear" x1="-0.269807" y1="0.913072" x2="50.1194" y2="40.2491" gradientUnits="userSpaceOnUse">
<stop stop-color="#5BB3FF"/>
<stop offset="1" stop-color="#B3E1F0"/>
</linearGradient>
</defs>
</svg>
