<svg width="45" height="45" viewBox="0 0 45 45" fill="none" xmlns="http://www.w3.org/2000/svg">
<path d="M43.5522 14.0789H39.851L23.3987 0.368799C22.878 -0.0643799 22.1214 -0.0643799 21.6005 0.368799L5.14819 14.0789H1.44697C0.671106 14.0789 0.043457 14.7066 0.043457 15.4825V43.5526C0.043457 44.3285 0.671106 44.9561 1.44697 44.9561H43.5522C44.3281 44.9561 44.9557 44.3285 44.9557 43.5526V15.4825C44.9557 14.7066 44.3281 14.0789 43.5522 14.0789ZM22.4996 3.2744L35.4642 14.0789H9.53499L22.4996 3.2744ZM42.1487 42.1491H2.85047V16.886H42.1487V42.1491Z" fill="#19A8D5"/>
<path d="M34.4296 38.7428H10.5699C10.0682 38.7428 9.60498 38.4755 9.35414 38.041C9.10331 37.6065 9.10331 37.072 9.35414 36.6375L14.6913 27.3928C14.9367 26.9679 15.3861 26.702 15.877 26.691C16.3759 26.6813 16.8269 26.9268 17.0914 27.3407L19.013 30.3561L24.4968 21.1812C24.753 20.7522 25.2533 20.5398 25.7179 20.4971C26.2182 20.5025 26.6772 20.7754 26.9227 21.2099L35.6507 36.6485C35.8975 37.083 35.8932 37.6148 35.6411 38.0466C35.3902 38.4782 34.9283 38.7428 34.4296 38.7428ZM22.5682 35.9358H32.0241L25.6672 24.6926L20.7001 33.0041L22.5682 35.9358ZM13.0012 35.9358H19.2389L15.9659 30.7987L13.0012 35.9358Z" fill="#19A8D5" fill-opacity="0.5"/>
<path d="M11.973 25.9064C13.5233 25.9064 14.7801 24.6496 14.7801 23.0994C14.7801 21.5491 13.5233 20.2923 11.973 20.2923C10.4228 20.2923 9.16602 21.5491 9.16602 23.0994C9.16602 24.6496 10.4228 25.9064 11.973 25.9064Z" fill="#FF0080"/>
</svg>
