<svg width="24" height="24" viewBox="0 0 24 24" fill="none" xmlns="http://www.w3.org/2000/svg">
<path d="M12 22C7.038 22 3 17.963 3 13C3 8.037 7.038 4 12 4C16.962 4 21 8.037 21 13C21 17.963 16.962 22 12 22ZM12 6C8.14 6 5 9.14 5 13C5 16.86 8.14 20 12 20C15.86 20 19 16.86 19 13C19 9.14 15.86 6 12 6Z" fill="#757575"/>
<path d="M21.1409 8.098C21.6709 7.557 21.9999 6.817 21.9999 6C21.9999 4.343 20.6569 3 18.9999 3C18.1829 3 17.4419 3.329 16.9009 3.86L21.1409 8.098Z" fill="#757575"/>
<path d="M2.859 8.098C2.329 7.557 2 6.817 2 6C2 4.343 3.343 3 5 3C5.817 3 6.558 3.329 7.099 3.86L2.859 8.098Z" fill="#757575"/>
<path d="M14.293 16.707L11.293 13.707C11.105 13.519 11 13.265 11 13V8H13V12.586L15.707 15.293L14.293 16.707Z" fill="#757575"/>
</svg>
