<svg width="24" height="24" viewBox="0 0 24 24" fill="none" xmlns="http://www.w3.org/2000/svg">
<path d="M13 10H11V11.051C9.86 11.283 9 12.293 9 13.5C9 14.878 10.122 16 11.5 16H12.5C12.776 16 13 16.224 13 16.5C13 16.777 12.776 17 12.5 17H9V19H11V20H13V18.949C14.14 18.717 15 17.707 15 16.5C15 15.122 13.878 14 12.5 14H11.5C11.224 14 11 13.777 11 13.5C11 13.224 11.224 13 11.5 13H15V11H13V10Z" fill="#19A8D5"/>
<path d="M16.874 7.44503L19.197 6.98003L18.804 5.01903L15.339 5.71203L17.858 1.51503C18.079 1.14603 18.04 0.678026 17.762 0.352026C17.485 0.0250256 17.03 -0.0859744 16.629 0.0710256L12 1.92203L7.372 0.0710256C6.974 -0.0859744 6.517 0.0240256 6.239 0.352026C5.96 0.678026 5.922 1.14603 6.143 1.51503L8.662 5.71203L5.196 5.01903L4.804 6.98003L7.127 7.44503C4.647 9.04903 3 11.833 3 15C3 19.962 7.038 24 12 24C16.962 24 21 19.962 21 15C21 11.833 19.353 9.04903 16.874 7.44503ZM11.628 3.92803C11.867 4.02303 12.132 4.02303 12.371 3.92803L14.615 3.03103L13.434 5.00003H10.567L9.385 3.03103L11.628 3.92803ZM12 22C8.14 22 5 18.861 5 15C5 11.14 8.14 8.00003 12 8.00003C15.86 8.00003 19 11.14 19 15C19 18.86 15.86 22 12 22Z" fill="#19A8D5"/>
</svg>
