<svg width="47" height="47" viewBox="0 0 47 47" fill="none" xmlns="http://www.w3.org/2000/svg">
<path d="M16 1C9.78681 1 4.75 6.03681 4.75 12.25V20.5C4.75328 23.3981 7.10191 25.7467 10 25.75H10.75V24.25H10C7.93 24.2476 6.25244 22.57 6.25 20.5V12.25C6.25 6.86519 10.6152 2.5 16 2.5C21.3848 2.5 25.75 6.86519 25.75 12.25V20.5C25.7476 22.57 24.07 24.2476 22 24.25H21.25V25.75H22C24.8981 25.7467 27.2467 23.3981 27.25 20.5V12.25C27.25 6.03681 22.2132 1 16 1Z" fill="#19A8D5"/>
<path d="M4.75 20.5H4.45L4.45 20.5003L4.75 20.5ZM10 25.75L9.99966 26.05H10V25.75ZM10.75 25.75V26.05H11.05V25.75H10.75ZM10.75 24.25H11.05V23.95H10.75V24.25ZM10 24.25L9.99965 24.55H10V24.25ZM6.25 20.5H5.95L5.95 20.5004L6.25 20.5ZM25.75 20.5L26.05 20.5004V20.5H25.75ZM22 24.25V24.55H22.0004L22 24.25ZM21.25 24.25V23.95H20.95V24.25H21.25ZM21.25 25.75H20.95V26.05H21.25V25.75ZM22 25.75V26.05H22.0003L22 25.75ZM27.25 20.5L27.55 20.5003V20.5H27.25ZM16 0.7C9.62113 0.7 4.45 5.87113 4.45 12.25H5.05C5.05 6.2025 9.9525 1.3 16 1.3V0.7ZM4.45 12.25V20.5H5.05V12.25H4.45ZM4.45 20.5003C4.45347 23.5639 6.93615 26.0465 9.99966 26.05L10.0003 25.45C7.26767 25.4469 5.05309 23.2323 5.05 20.4997L4.45 20.5003ZM10 26.05H10.75V25.45H10V26.05ZM11.05 25.75V24.25H10.45V25.75H11.05ZM10.75 23.95H10V24.55H10.75V23.95ZM10.0004 23.95C8.09576 23.9478 6.55224 22.4042 6.55 20.4996L5.95 20.5004C5.95263 22.7358 7.76424 24.5474 9.99965 24.55L10.0004 23.95ZM6.55 20.5V12.25H5.95V20.5H6.55ZM6.55 12.25C6.55 7.03087 10.7809 2.8 16 2.8V2.2C10.4495 2.2 5.95 6.6995 5.95 12.25H6.55ZM16 2.8C21.2191 2.8 25.45 7.03087 25.45 12.25H26.05C26.05 6.6995 21.5505 2.2 16 2.2V2.8ZM25.45 12.25V20.5H26.05V12.25H25.45ZM25.45 20.4996C25.4478 22.4042 23.9042 23.9478 21.9996 23.95L22.0004 24.55C24.2358 24.5474 26.0474 22.7358 26.05 20.5004L25.45 20.4996ZM22 23.95H21.25V24.55H22V23.95ZM20.95 24.25V25.75H21.55V24.25H20.95ZM21.25 26.05H22V25.45H21.25V26.05ZM22.0003 26.05C25.0639 26.0465 27.5465 23.5639 27.55 20.5003L26.95 20.4997C26.9469 23.2323 24.7323 25.4469 21.9997 25.45L22.0003 26.05ZM27.55 20.5V12.25H26.95V20.5H27.55ZM27.55 12.25C27.55 5.87113 22.3789 0.7 16 0.7V1.3C22.0475 1.3 26.95 6.2025 26.95 12.25H27.55Z" fill="#19A8D5"/>
<path d="M7.1805 36.3465L7.72875 35.4832L6.462 34.6792L5.91375 35.5432C4.25559 38.1562 4.37869 41.5207 6.2235 44.0055V45.9997H7.7235V43.7497C7.72359 43.5794 7.66566 43.414 7.55925 43.281C5.96475 41.2876 5.81259 38.5016 7.1805 36.3465Z" fill="#19A8D5"/>
<path d="M7.1805 36.3465L6.92726 36.1856L6.92721 36.1857L7.1805 36.3465ZM7.72875 35.4832L7.98199 35.644L8.14287 35.3907L7.88951 35.2299L7.72875 35.4832ZM6.462 34.6792L6.62276 34.4259L6.36945 34.2651L6.20869 34.5185L6.462 34.6792ZM5.91375 35.5432L6.16705 35.7039L6.16706 35.7039L5.91375 35.5432ZM6.2235 44.0055H6.5235V43.9063L6.46437 43.8266L6.2235 44.0055ZM6.2235 45.9997H5.9235V46.2997H6.2235V45.9997ZM7.7235 45.9997V46.2997H8.0235V45.9997H7.7235ZM7.7235 43.7497L7.4235 43.7495V43.7497H7.7235ZM7.55925 43.281L7.79353 43.0936L7.79352 43.0936L7.55925 43.281ZM7.43374 36.5073L7.98199 35.644L7.47551 35.3224L6.92726 36.1856L7.43374 36.5073ZM7.88951 35.2299L6.62276 34.4259L6.30124 34.9325L7.56799 35.7365L7.88951 35.2299ZM6.20869 34.5185L5.66044 35.3825L6.16706 35.7039L6.71531 34.8399L6.20869 34.5185ZM5.66045 35.3825C3.93576 38.1003 4.06379 41.5998 5.98263 44.1843L6.46437 43.8266C4.69359 41.4416 4.57543 38.2121 6.16705 35.7039L5.66045 35.3825ZM5.9235 44.0055V45.9997H6.5235V44.0055H5.9235ZM6.2235 46.2997H7.7235V45.6997H6.2235V46.2997ZM8.0235 45.9997V43.7497H7.4235V45.9997H8.0235ZM8.0235 43.7499C8.02363 43.5114 7.94252 43.2798 7.79353 43.0936L7.32497 43.4683C7.38879 43.5481 7.42356 43.6473 7.4235 43.7495L8.0235 43.7499ZM7.79352 43.0936C6.27908 41.2003 6.13456 38.5541 7.43379 36.5072L6.92721 36.1857C5.49063 38.449 5.65042 41.375 7.32498 43.4684L7.79352 43.0936Z" fill="#19A8D5"/>
<path d="M42.25 1H32.5C30.43 1.00244 28.7524 2.68 28.75 4.75V12.25C28.7524 14.32 30.43 15.9976 32.5 16H34V19C33.9999 19.3033 34.1825 19.5768 34.4628 19.693C34.5538 19.731 34.6514 19.7503 34.75 19.75C34.9489 19.75 35.1396 19.6709 35.2803 19.5303L38.8105 16H42.25C44.32 15.9976 45.9976 14.32 46 12.25V4.75C45.9976 2.68 44.32 1.00244 42.25 1ZM44.5 12.25C44.5 13.4927 43.4927 14.5 42.25 14.5H38.5C38.3011 14.5 38.1104 14.5791 37.9698 14.7198L35.5 17.1895V15.25C35.5 14.8358 35.1642 14.5 34.75 14.5H32.5C31.2573 14.5 30.25 13.4927 30.25 12.25V4.75C30.25 3.50734 31.2573 2.5 32.5 2.5H42.25C43.4927 2.5 44.5 3.50734 44.5 4.75V12.25Z" fill="#7FC7DD"/>
<path d="M42.25 1L42.2504 0.7H42.25V1ZM32.5 1V0.7L32.4996 0.7L32.5 1ZM28.75 4.75L28.45 4.74965V4.75H28.75ZM28.75 12.25H28.45L28.45 12.2504L28.75 12.25ZM32.5 16L32.4996 16.3H32.5V16ZM34 16H34.3V15.7H34V16ZM34 19L34.3 19.0001V19H34ZM34.4628 19.693L34.5782 19.4161L34.5776 19.4159L34.4628 19.693ZM34.75 19.75V19.45L34.7491 19.45L34.75 19.75ZM35.2803 19.5303L35.0681 19.3181L35.2803 19.5303ZM38.8105 16V15.7H38.6862L38.5984 15.7879L38.8105 16ZM42.25 16V16.3H42.2504L42.25 16ZM46 12.25L46.3 12.2504V12.25H46ZM46 4.75H46.3L46.3 4.74965L46 4.75ZM37.9698 14.7198L37.7576 14.5076H37.7576L37.9698 14.7198ZM35.5 17.1895H35.2V17.9138L35.7121 17.4016L35.5 17.1895ZM42.25 0.7H32.5V1.3H42.25V0.7ZM32.4996 0.7C30.2642 0.702632 28.4526 2.51424 28.45 4.74965L29.05 4.75035C29.0522 2.84576 30.5958 1.30224 32.5004 1.3L32.4996 0.7ZM28.45 4.75V12.25H29.05V4.75H28.45ZM28.45 12.2504C28.4526 14.4858 30.2642 16.2974 32.4996 16.3L32.5004 15.7C30.5958 15.6978 29.0522 14.1542 29.05 12.2496L28.45 12.2504ZM32.5 16.3H34V15.7H32.5V16.3ZM33.7 16V19H34.3V16H33.7ZM33.7 18.9999C33.6999 19.4245 33.9555 19.8075 34.3479 19.9701L34.5776 19.4159C34.4095 19.3462 34.2999 19.182 34.3 19.0001L33.7 18.9999ZM34.3473 19.9699C34.4753 20.0233 34.6125 20.0504 34.7509 20.05L34.7491 19.45C34.6903 19.4502 34.6323 19.4387 34.5782 19.4161L34.3473 19.9699ZM34.75 20.05C35.0286 20.05 35.2956 19.9392 35.4924 19.7424L35.0681 19.3181C34.9837 19.4026 34.8692 19.45 34.75 19.45V20.05ZM35.4924 19.7424L39.0226 16.2121L38.5984 15.7879L35.0681 19.3181L35.4924 19.7424ZM38.8105 16.3H42.25V15.7H38.8105V16.3ZM42.2504 16.3C44.4858 16.2974 46.2974 14.4858 46.3 12.2504L45.7 12.2496C45.6978 14.1542 44.1542 15.6978 42.2497 15.7L42.2504 16.3ZM46.3 12.25V4.75H45.7V12.25H46.3ZM46.3 4.74965C46.2974 2.51424 44.4858 0.702632 42.2504 0.7L42.2497 1.3C44.1542 1.30224 45.6978 2.84576 45.7 4.75035L46.3 4.74965ZM44.2 12.25C44.2 13.327 43.327 14.2 42.25 14.2V14.8C43.6584 14.8 44.8 13.6583 44.8 12.25H44.2ZM42.25 14.2H38.5V14.8H42.25V14.2ZM38.5 14.2C38.2214 14.2 37.9544 14.3108 37.7576 14.5076L38.1819 14.9319C38.2663 14.8474 38.3808 14.8 38.5 14.8V14.2ZM37.7576 14.5076L35.2879 16.9774L35.7121 17.4016L38.1819 14.9319L37.7576 14.5076ZM35.8 17.1895V15.25H35.2V17.1895H35.8ZM35.8 15.25C35.8 14.6701 35.3299 14.2 34.75 14.2V14.8C34.9985 14.8 35.2 15.0015 35.2 15.25H35.8ZM34.75 14.2H32.5V14.8H34.75V14.2ZM32.5 14.2C31.423 14.2 30.55 13.327 30.55 12.25H29.95C29.95 13.6583 31.0917 14.8 32.5 14.8V14.2ZM30.55 12.25V4.75H29.95V12.25H30.55ZM30.55 4.75C30.55 3.67303 31.423 2.8 32.5 2.8V2.2C31.0917 2.2 29.95 3.34166 29.95 4.75H30.55ZM32.5 2.8H42.25V2.2H32.5V2.8ZM42.25 2.8C43.327 2.8 44.2 3.67303 44.2 4.75H44.8C44.8 3.34166 43.6584 2.2 42.25 2.2V2.8ZM44.2 4.75V12.25H44.8V4.75H44.2Z" fill="#7FC7DD"/>
<path d="M37.75 4.75H32.5V6.25H37.75V4.75Z" fill="#FF0080"/>
<path d="M32.5 4.75V4.45H32.2V4.75H32.5ZM37.75 4.75H38.05V4.45H37.75V4.75ZM37.75 6.25V6.55H38.05V6.25H37.75ZM32.5 6.25H32.2V6.55H32.5V6.25ZM32.5 5.05H37.75V4.45H32.5V5.05ZM37.45 4.75V6.25H38.05V4.75H37.45ZM37.75 5.95H32.5V6.55H37.75V5.95ZM32.8 6.25V4.75H32.2V6.25H32.8Z" fill="#FF0080"/>
<path d="M42.25 4.75H39.25V6.25H42.25V4.75Z" fill="#FF0080"/>
<path d="M39.25 4.75V4.45H38.95V4.75H39.25ZM42.25 4.75H42.55V4.45H42.25V4.75ZM42.25 6.25V6.55H42.55V6.25H42.25ZM39.25 6.25H38.95V6.55H39.25V6.25ZM39.25 5.05H42.25V4.45H39.25V5.05ZM41.95 4.75V6.25H42.55V4.75H41.95ZM42.25 5.95H39.25V6.55H42.25V5.95ZM39.55 6.25V4.75H38.95V6.25H39.55Z" fill="#FF0080"/>
<path d="M42.25 7.75H32.5V9.25H42.25V7.75Z" fill="#FF0080"/>
<path d="M32.5 7.75V7.45H32.2V7.75H32.5ZM42.25 7.75H42.55V7.45H42.25V7.75ZM42.25 9.25V9.55H42.55V9.25H42.25ZM32.5 9.25H32.2V9.55H32.5V9.25ZM32.5 8.05H42.25V7.45H32.5V8.05ZM41.95 7.75V9.25H42.55V7.75H41.95ZM42.25 8.95H32.5V9.55H42.25V8.95ZM32.8 9.25V7.75H32.2V9.25H32.8Z" fill="#FF0080"/>
<path d="M37.75 10.75H32.5V12.25H37.75V10.75Z" fill="#FF0080"/>
<path d="M32.5 10.75V10.45H32.2V10.75H32.5ZM37.75 10.75H38.05V10.45H37.75V10.75ZM37.75 12.25V12.55H38.05V12.25H37.75ZM32.5 12.25H32.2V12.55H32.5V12.25ZM32.5 11.05H37.75V10.45H32.5V11.05ZM37.45 10.75V12.25H38.05V10.75H37.45ZM37.75 11.95H32.5V12.55H37.75V11.95ZM32.8 12.25V10.75H32.2V12.25H32.8Z" fill="#FF0080"/>
<path d="M26.086 35.5432L25.5377 34.6792L24.271 35.4832L24.8192 36.3472C26.1873 38.502 26.0351 41.2879 24.4405 43.281C24.3341 43.414 24.2762 43.5794 24.2762 43.7497V45.9997H25.7763V44.0055C27.6211 41.5207 27.7442 38.1562 26.086 35.5432Z" fill="#19A8D5"/>
<path d="M26.086 35.5432L25.8327 35.7039L25.8327 35.7039L26.086 35.5432ZM25.5377 34.6792L25.7911 34.5185L25.6303 34.2651L25.377 34.4259L25.5377 34.6792ZM24.271 35.4832L24.1102 35.2299L23.857 35.3907L24.0177 35.6439L24.271 35.4832ZM24.8192 36.3472L24.5659 36.5079L24.566 36.508L24.8192 36.3472ZM24.4405 43.281L24.2062 43.0935L24.2062 43.0936L24.4405 43.281ZM24.2762 43.7497H24.5762L24.5762 43.7495L24.2762 43.7497ZM24.2762 45.9997H23.9762V46.2997H24.2762V45.9997ZM25.7763 45.9997V46.2997H26.0763V45.9997H25.7763ZM25.7763 44.0055L25.5354 43.8266L25.4763 43.9063V44.0055H25.7763ZM26.3393 35.3825L25.7911 34.5185L25.2844 34.8399L25.8327 35.7039L26.3393 35.3825ZM25.377 34.4259L24.1102 35.2299L24.4318 35.7365L25.6985 34.9325L25.377 34.4259ZM24.0177 35.6439L24.5659 36.5079L25.0726 36.1865L24.5243 35.3225L24.0177 35.6439ZM24.566 36.508C25.8653 38.5546 25.7208 41.2006 24.2062 43.0935L24.6747 43.4684C26.3494 41.3753 26.5092 38.4495 25.0725 36.1864L24.566 36.508ZM24.2062 43.0936C24.0572 43.2798 23.9761 43.5114 23.9762 43.7499L24.5762 43.7495C24.5762 43.6473 24.611 43.5481 24.6748 43.4683L24.2062 43.0936ZM23.9762 43.7497V45.9997H24.5762V43.7497H23.9762ZM24.2762 46.2997H25.7763V45.6997H24.2762V46.2997ZM26.0763 45.9997V44.0055H25.4763V45.9997H26.0763ZM26.0171 44.1843C27.936 41.5998 28.064 38.1003 26.3393 35.3825L25.8327 35.7039C27.4243 38.2121 27.3062 41.4416 25.5354 43.8266L26.0171 44.1843Z" fill="#19A8D5"/>
<path d="M45.25 26.5002H38.5C35.686 26.5035 33.3751 28.7248 33.2605 31.5365L31 35.606V32.5002C30.9967 29.6021 28.6481 27.2535 25.75 27.2502H23.0088L22.9885 27.2345L22.975 27.2502H21.25C20.4215 27.2502 19.75 26.5787 19.75 25.7502V23.9855C22.0674 22.6475 23.4964 20.1761 23.5 17.5002V11.5002C23.4989 10.2576 23.1897 9.03459 22.6 7.94072C22.4111 7.59272 21.9842 7.45144 21.625 7.61822L8.9305 13.5912C8.66763 13.715 8.49991 13.9794 8.5 14.27V17.5002C8.50356 20.1761 9.93259 22.6475 12.25 23.9855V25.7502C12.25 26.5787 11.5785 27.2502 10.75 27.2502H6.25C3.35191 27.2535 1.00328 29.6021 1 32.5002V46.0002H2.5V32.5002C2.50244 30.4302 4.18 28.7527 6.25 28.7502H8.6365L15.3903 38.1867C15.529 38.3807 15.7517 38.497 15.9902 38.5002H16C16.2361 38.5002 16.4583 38.389 16.6 38.2002L23.725 28.7502H25.75C27.82 28.7527 29.4976 30.4302 29.5 32.5002V38.5002C29.5004 38.9144 29.8365 39.2499 30.2507 39.2496C30.5227 39.2493 30.7733 39.1018 30.9055 38.864L34.441 32.5002H38.7407L31.4282 46.0002H33.1345L40.45 32.5002H40.75C43.6481 32.4969 45.9967 30.1483 46 27.2502C46 26.836 45.6642 26.5002 45.25 26.5002ZM10 17.5002V14.7462L21.5807 9.29672C21.8578 9.99834 22 10.7459 22 11.5002V17.5002C22 20.8139 19.3137 23.5002 16 23.5002C12.6863 23.5002 10 20.8139 10 17.5002ZM16.0157 36.4842L13.7013 33.2502H18.4533L16.0157 36.4842ZM19.588 31.7502H12.625L10.4777 28.7502H10.75C12.4068 28.7502 13.75 27.4071 13.75 25.7502V24.6545C15.2146 25.1154 16.7854 25.1154 18.25 24.6545V25.7502C18.25 27.4071 19.5932 28.7502 21.25 28.7502H21.85L19.588 31.7502ZM40.75 31.0002H34.825C35.1836 29.2552 36.7186 28.0022 38.5 28.0002H44.425C44.0664 29.7452 42.5314 30.9982 40.75 31.0002Z" fill="#19A8D5"/>
<path d="M38.5 26.5002V26.2002H38.4997L38.5 26.5002ZM33.2605 31.5365L33.5228 31.6821L33.5574 31.6199L33.5603 31.5487L33.2605 31.5365ZM31 35.606H30.7V36.7639L31.2623 35.7516L31 35.606ZM31 32.5002H31.3V32.4999L31 32.5002ZM25.75 27.2502L25.7503 26.9502H25.75V27.2502ZM23.0088 27.2502L22.8246 27.487L22.9058 27.5502H23.0088V27.2502ZM22.9885 27.2345L23.1727 26.9977L22.9469 26.822L22.7607 27.0392L22.9885 27.2345ZM22.975 27.2502V27.5502H23.113L23.2028 27.4454L22.975 27.2502ZM19.75 23.9855L19.6 23.7257L19.45 23.8123V23.9855H19.75ZM23.5 17.5002L23.8 17.5006V17.5002H23.5ZM23.5 11.5002H23.8V11.4999L23.5 11.5002ZM22.6 7.94072L22.8641 7.79836L22.8637 7.79759L22.6 7.94072ZM21.625 7.61822L21.4986 7.34612L21.4973 7.34676L21.625 7.61822ZM8.9305 13.5912L8.80278 13.3198L8.80272 13.3198L8.9305 13.5912ZM8.5 14.27H8.8V14.2699L8.5 14.27ZM8.5 17.5002H8.2L8.2 17.5006L8.5 17.5002ZM12.25 23.9855H12.55V23.8123L12.4 23.7257L12.25 23.9855ZM6.25 27.2502V26.9502H6.24966L6.25 27.2502ZM1 32.5002L0.7 32.4999V32.5002H1ZM1 46.0002H0.7V46.3002H1V46.0002ZM2.5 46.0002V46.3002H2.8V46.0002H2.5ZM2.5 32.5002L2.2 32.4999V32.5002H2.5ZM6.25 28.7502V28.4502L6.24965 28.4502L6.25 28.7502ZM8.6365 28.7502L8.88046 28.5756L8.79071 28.4502H8.6365V28.7502ZM15.3903 38.1867L15.6343 38.0122L15.6342 38.0121L15.3903 38.1867ZM15.9902 38.5002L15.9862 38.8002H15.9902V38.5002ZM16.6 38.2002L16.3605 38.0196L16.36 38.0202L16.6 38.2002ZM23.725 28.7502V28.4502H23.5755L23.4855 28.5696L23.725 28.7502ZM25.75 28.7502L25.7504 28.4502H25.75V28.7502ZM29.5 32.5002H29.8V32.4999L29.5 32.5002ZM29.5 38.5002H29.2L29.2 38.5005L29.5 38.5002ZM30.2507 39.2496L30.2509 39.5496H30.251L30.2507 39.2496ZM30.9055 38.864L31.1677 39.0097L31.1677 39.0097L30.9055 38.864ZM34.441 32.5002V32.2002H34.2645L34.1788 32.3545L34.441 32.5002ZM38.7407 32.5002L39.0045 32.6431L39.2444 32.2002H38.7407V32.5002ZM31.4282 46.0002L31.1645 45.8573L30.9246 46.3002H31.4282V46.0002ZM33.1345 46.0002V46.3002H33.3131L33.3983 46.1431L33.1345 46.0002ZM40.45 32.5002V32.2002H40.2714L40.1862 32.3573L40.45 32.5002ZM40.75 32.5002V32.8002H40.7503L40.75 32.5002ZM46 27.2502L46.3 27.2506V27.2502H46ZM10 14.7462L9.87227 14.4748L9.7 14.5558V14.7462H10ZM21.5807 9.29672L21.8598 9.18654L21.7424 8.88912L21.453 9.02527L21.5807 9.29672ZM16.0157 36.4842L15.7718 36.6588L16.0095 36.9909L16.2553 36.6648L16.0157 36.4842ZM13.7013 33.2502V32.9502H13.1176L13.4573 33.4248L13.7013 33.2502ZM18.4533 33.2502L18.6928 33.4308L19.055 32.9502H18.4533V33.2502ZM19.588 31.7502V32.0502H19.7375L19.8275 31.9308L19.588 31.7502ZM12.625 31.7502L12.381 31.9248L12.4708 32.0502H12.625V31.7502ZM10.4777 28.7502V28.4502H9.8941L10.2338 28.9248L10.4777 28.7502ZM13.75 24.6545L13.8401 24.3683L13.45 24.2455V24.6545H13.75ZM18.25 24.6545H18.55V24.2455L18.1599 24.3683L18.25 24.6545ZM21.85 28.7502L22.0895 28.9308L22.4519 28.4502H21.85V28.7502ZM40.75 31.0002V31.3002H40.7503L40.75 31.0002ZM34.825 31.0002L34.5311 30.9398L34.4571 31.3002H34.825V31.0002ZM38.5 28.0002V27.7002H38.4997L38.5 28.0002ZM44.425 28.0002L44.7189 28.0606L44.7929 27.7002H44.425V28.0002ZM45.25 26.2002H38.5V26.8002H45.25V26.2002ZM38.4997 26.2002C35.5249 26.2037 33.0819 28.5519 32.9607 31.5243L33.5603 31.5487C33.6683 28.8977 35.8472 26.8033 38.5004 26.8002L38.4997 26.2002ZM32.9982 31.3908L30.7377 35.4603L31.2623 35.7516L33.5228 31.6821L32.9982 31.3908ZM31.3 35.606V32.5002H30.7V35.606H31.3ZM31.3 32.4999C31.2965 29.4364 28.8139 26.9537 25.7503 26.9502L25.7497 27.5502C28.4823 27.5533 30.6969 29.7679 30.7 32.5006L31.3 32.4999ZM25.75 26.9502H23.0088V27.5502H25.75V26.9502ZM23.1929 27.0134L23.1727 26.9977L22.8043 27.4713L22.8246 27.487L23.1929 27.0134ZM22.7607 27.0392L22.7472 27.055L23.2028 27.4454L23.2163 27.4297L22.7607 27.0392ZM22.975 26.9502H21.25V27.5502H22.975V26.9502ZM21.25 26.9502C20.5872 26.9502 20.05 26.413 20.05 25.7502H19.45C19.45 26.7444 20.2558 27.5502 21.25 27.5502V26.9502ZM20.05 25.7502V23.9855H19.45V25.7502H20.05ZM19.9 24.2453C22.3101 22.8538 23.7963 20.2836 23.8 17.5006L23.2 17.4998C23.1966 20.0687 21.8247 22.4412 19.6 23.7257L19.9 24.2453ZM23.8 17.5002V11.5002H23.2V17.5002H23.8ZM23.8 11.4999C23.7988 10.2077 23.4773 8.9359 22.8641 7.79836L22.3359 8.08307C22.9021 9.13328 23.1989 10.3074 23.2 11.5005L23.8 11.4999ZM22.8637 7.79759C22.5992 7.31044 22.0015 7.1126 21.4986 7.34612L21.7514 7.89031C21.9668 7.79027 22.223 7.875 22.3363 8.08384L22.8637 7.79759ZM21.4973 7.34676L8.80278 13.3198L9.05822 13.8627L21.7527 7.88967L21.4973 7.34676ZM8.80272 13.3198C8.43467 13.4931 8.19987 13.8633 8.2 14.2701L8.8 14.2699C8.79994 14.0956 8.90058 13.9369 9.05828 13.8626L8.80272 13.3198ZM8.2 14.27V17.5002H8.8V14.27H8.2ZM8.2 17.5006C8.20371 20.2836 9.6899 22.8538 12.1 24.2453L12.4 23.7257C10.1753 22.4412 8.80342 20.0687 8.8 17.4998L8.2 17.5006ZM11.95 23.9855V25.7502H12.55V23.9855H11.95ZM11.95 25.7502C11.95 26.413 11.4128 26.9502 10.75 26.9502V27.5502C11.7442 27.5502 12.55 26.7444 12.55 25.7502H11.95ZM10.75 26.9502H6.25V27.5502H10.75V26.9502ZM6.24966 26.9502C3.18615 26.9537 0.703469 29.4364 0.7 32.4999L1.3 32.5006C1.30309 29.7679 3.51767 27.5533 6.25034 27.5502L6.24966 26.9502ZM0.7 32.5002V46.0002H1.3V32.5002H0.7ZM1 46.3002H2.5V45.7002H1V46.3002ZM2.8 46.0002V32.5002H2.2V46.0002H2.8ZM2.8 32.5006C2.80224 30.596 4.34576 29.0525 6.25035 29.0502L6.24965 28.4502C4.01424 28.4529 2.20263 30.2645 2.2 32.4999L2.8 32.5006ZM6.25 29.0502H8.6365V28.4502H6.25V29.0502ZM8.39254 28.9248L15.1463 38.3613L15.6342 38.0121L8.88046 28.5756L8.39254 28.9248ZM15.1462 38.3613C15.3405 38.6329 15.6524 38.7957 15.9862 38.8002L15.9943 38.2002C15.8511 38.1983 15.7175 38.1285 15.6343 38.0122L15.1462 38.3613ZM15.9902 38.8002H16V38.2002H15.9902V38.8002ZM16 38.8002C16.3305 38.8002 16.6417 38.6445 16.84 38.3803L16.36 38.0202C16.275 38.1335 16.1416 38.2002 16 38.2002V38.8002ZM16.8395 38.3808L23.9645 28.9308L23.4855 28.5696L16.3605 38.0196L16.8395 38.3808ZM23.725 29.0502H25.75V28.4502H23.725V29.0502ZM25.7496 29.0502C27.6542 29.0525 29.1978 30.596 29.2 32.5006L29.8 32.4999C29.7974 30.2645 27.9858 28.4529 25.7504 28.4502L25.7496 29.0502ZM29.2 32.5002V38.5002H29.8V32.5002H29.2ZM29.2 38.5005C29.2005 39.0803 29.671 39.5501 30.2509 39.5496L30.2504 38.9496C30.0019 38.9498 29.8002 38.7485 29.8 38.4999L29.2 38.5005ZM30.251 39.5496C30.6318 39.5492 30.9826 39.3427 31.1677 39.0097L30.6433 38.7182C30.564 38.8609 30.4137 38.9494 30.2503 38.9496L30.251 39.5496ZM31.1677 39.0097L34.7032 32.6459L34.1788 32.3545L30.6433 38.7183L31.1677 39.0097ZM34.441 32.8002H38.7407V32.2002H34.441V32.8002ZM38.477 32.3573L31.1645 45.8573L31.692 46.1431L39.0045 32.6431L38.477 32.3573ZM31.4282 46.3002H33.1345V45.7002H31.4282V46.3002ZM33.3983 46.1431L40.7138 32.6431L40.1862 32.3573L32.8707 45.8573L33.3983 46.1431ZM40.45 32.8002H40.75V32.2002H40.45V32.8002ZM40.7503 32.8002C43.8139 32.7967 46.2965 30.3141 46.3 27.2506L45.7 27.2499C45.6969 29.9826 43.4823 32.1971 40.7497 32.2002L40.7503 32.8002ZM46.3 27.2502C46.3 26.6703 45.8299 26.2002 45.25 26.2002V26.8002C45.4985 26.8002 45.7 27.0017 45.7 27.2502H46.3ZM10.3 17.5002V14.7462H9.7V17.5002H10.3ZM10.1277 15.0177L21.7085 9.56817L21.453 9.02527L9.87227 14.4748L10.1277 15.0177ZM21.3017 9.40689C21.5649 10.0734 21.7 10.7836 21.7 11.5002H22.3C22.3 10.7082 22.1507 9.92325 21.8598 9.18654L21.3017 9.40689ZM21.7 11.5002V17.5002H22.3V11.5002H21.7ZM21.7 17.5002C21.7 20.6482 19.148 23.2002 16 23.2002V23.8002C19.4794 23.8002 22.3 20.9796 22.3 17.5002H21.7ZM16 23.2002C12.852 23.2002 10.3 20.6482 10.3 17.5002H9.7C9.7 20.9796 12.5206 23.8002 16 23.8002V23.2002ZM16.2597 36.3096L13.9452 33.0756L13.4573 33.4248L15.7718 36.6588L16.2597 36.3096ZM13.7013 33.5502H18.4533V32.9502H13.7013V33.5502ZM18.2137 33.0696L15.7762 36.3036L16.2553 36.6648L18.6928 33.4308L18.2137 33.0696ZM19.588 31.4502H12.625V32.0502H19.588V31.4502ZM12.869 31.5756L10.7217 28.5756L10.2338 28.9248L12.381 31.9248L12.869 31.5756ZM10.4777 29.0502H10.75V28.4502H10.4777V29.0502ZM10.75 29.0502C12.5725 29.0502 14.05 27.5727 14.05 25.7502H13.45C13.45 27.2414 12.2412 28.4502 10.75 28.4502V29.0502ZM14.05 25.7502V24.6545H13.45V25.7502H14.05ZM13.6599 24.9406C15.1831 25.42 16.8169 25.42 18.3401 24.9406L18.1599 24.3683C16.754 24.8108 15.246 24.8108 13.8401 24.3683L13.6599 24.9406ZM17.95 24.6545V25.7502H18.55V24.6545H17.95ZM17.95 25.7502C17.95 27.5727 19.4275 29.0502 21.25 29.0502V28.4502C19.7588 28.4502 18.55 27.2414 18.55 25.7502H17.95ZM21.25 29.0502H21.85V28.4502H21.25V29.0502ZM21.6105 28.5696L19.3485 31.5696L19.8275 31.9308L22.0895 28.9308L21.6105 28.5696ZM40.75 30.7002H34.825V31.3002H40.75V30.7002ZM35.1189 31.0606C35.4488 29.455 36.8612 28.302 38.5003 28.3002L38.4997 27.7002C36.5759 27.7023 34.9184 29.0555 34.5311 30.9398L35.1189 31.0606ZM38.5 28.3002H44.425V27.7002H38.5V28.3002ZM44.1311 27.9398C43.8012 29.5454 42.3888 30.6984 40.7497 30.7002L40.7503 31.3002C42.6741 31.2981 44.3316 29.9449 44.7189 28.0606L44.1311 27.9398Z" fill="#19A8D5"/>
</svg>
