<svg width="25" height="26" viewBox="0 0 25 26" fill="none" xmlns="http://www.w3.org/2000/svg">
<path d="M12.6749 0.00116143C5.64513 -0.0937861 -0.0937861 5.64513 0.00116143 12.6749C0.0949071 19.4167 5.58444 24.9063 12.3263 25C19.3572 25.0962 25.095 19.3572 24.9988 12.3275C24.9063 5.58444 19.4167 0.0949071 12.6749 0.00116143ZM11.6659 11.5673L14.7637 8.02183C14.9315 7.82978 15.1688 7.71226 15.4232 7.69513C15.6777 7.678 15.9286 7.76266 16.1206 7.93048C16.3127 8.09831 16.4302 8.33555 16.4473 8.59002C16.4644 8.84449 16.3798 9.09534 16.212 9.28739L13.1141 12.8329C13.031 12.928 12.93 13.0058 12.8169 13.0618C12.7037 13.1179 12.5806 13.1511 12.4546 13.1596C12.3286 13.1681 12.2022 13.1517 12.0825 13.1113C11.9629 13.0709 11.8523 13.0073 11.7572 12.9242C11.6621 12.8411 11.5843 12.7401 11.5283 12.627C11.4722 12.5138 11.439 12.3907 11.4305 12.2647C11.4221 12.1387 11.4385 12.0123 11.4789 11.8926C11.5192 11.773 11.5828 11.6624 11.6659 11.5673ZM9.33066 17.0268C9.15036 17.207 8.9059 17.3082 8.651 17.3082C8.39611 17.3082 8.15164 17.207 7.97135 17.0268L5.08987 14.1423C5.00062 14.053 4.92983 13.947 4.88156 13.8303C4.83328 13.7136 4.80847 13.5885 4.80852 13.4623C4.80858 13.336 4.83351 13.2109 4.88188 13.0943C4.93026 12.9777 5.00114 12.8717 5.09047 12.7824C5.1798 12.6932 5.28584 12.6224 5.40253 12.5741C5.51922 12.5258 5.64427 12.501 5.77055 12.5011C5.89683 12.5011 6.02186 12.5261 6.13851 12.5744C6.25515 12.6228 6.36113 12.6937 6.45038 12.783L9.33487 15.6675C9.51449 15.8484 9.61495 16.0931 9.61416 16.348C9.61337 16.6029 9.5114 16.8471 9.33066 17.0268ZM19.9552 9.28739L13.2319 16.9793C13.1453 17.0786 13.0392 17.159 12.9202 17.2155C12.8012 17.2721 12.6719 17.3036 12.5402 17.3081H12.5078C12.3815 17.3081 12.2563 17.2832 12.1396 17.2348C12.0229 17.1865 11.9169 17.1156 11.8275 17.0262L8.94666 14.1417C8.76641 13.9613 8.6652 13.7167 8.66532 13.4617C8.66543 13.2066 8.76685 12.9621 8.94726 12.7818C9.12768 12.6016 9.37231 12.5004 9.62735 12.5005C9.88238 12.5006 10.1269 12.602 10.3072 12.7824L12.098 14.575C12.1445 14.6216 12.2001 14.6581 12.2614 14.6823C12.3226 14.7065 12.3882 14.7178 12.454 14.7156C12.5198 14.7134 12.5845 14.6977 12.6439 14.6695C12.7034 14.6413 12.7565 14.6011 12.7999 14.5516L18.5087 8.02183C18.6765 7.82978 18.9138 7.71226 19.1683 7.69513C19.4227 7.678 19.6736 7.76266 19.8656 7.93048C20.0577 8.09831 20.1752 8.33555 20.1923 8.59002C20.2095 8.84449 20.1248 9.09534 19.957 9.28739H19.9552Z" fill="#19A8D5"/>
</svg>
