<svg width="50" height="50" viewBox="0 0 50 50" fill="none" xmlns="http://www.w3.org/2000/svg">
<g clip-path="url(#clip0)">
<path d="M29.5791 5.51251C28.4244 3.81452 27.4056 2.25236 26.4548 0.826045C26.3189 0.622286 26.1152 0.418527 25.9114 0.282687C25.0964 -0.260671 24.0097 0.0110079 23.4663 0.826045C22.5833 2.25236 21.5645 3.7466 20.342 5.51251C14.9763 13.3912 6.96179 25.2772 6.96179 32.0691C6.96179 37.0273 8.99939 41.51 12.2595 44.7701C15.5197 47.9624 20.0024 50 24.9605 50C29.9187 50 34.4014 47.9624 37.6615 44.7022C40.9217 41.4421 42.9593 36.9594 42.9593 32.0012C42.9593 25.2092 34.9447 13.3912 29.5791 5.51251ZM35.2164 42.2571C32.5676 44.906 28.9678 46.4681 24.9605 46.4681C20.9533 46.4681 17.3535 44.8381 14.7046 42.2571C12.0558 39.6082 10.4936 36.0085 10.4936 32.0012C10.4936 26.296 18.1686 14.9534 23.2625 7.41426C23.8738 6.53131 24.4172 5.64835 24.9605 4.90123C25.5039 5.64835 26.0473 6.53131 26.6585 7.41426C31.7525 15.0213 39.4275 26.296 39.4275 32.0012C39.4275 36.0085 37.7974 39.6082 35.2164 42.2571Z" fill="#19A8D5"/>
<g clip-path="url(#clip1)">
<path d="M32.0771 24.6359C31.3778 23.9366 30.2438 23.9366 29.5444 24.6359C29.0769 25.1035 28.9294 25.7635 29.0869 26.3598L26.8643 28.5821L25.9145 27.6324C25.7397 27.4576 25.4562 27.4576 25.2814 27.6324L24.6481 28.2656C24.4733 28.4404 24.4733 28.7239 24.6481 28.8987L25.5979 29.8485L20.5064 34.9401L20.1966 34.5264C19.1296 33.1016 19.2719 31.1092 20.5306 29.8506L21.1658 29.2154L21.8406 29.8901C21.9574 30.0069 22.1289 30.0499 22.2869 30.002C22.4449 29.9542 22.5638 29.8232 22.5962 29.6613L22.9336 26.7081C22.963 26.5613 22.917 26.4095 22.8111 26.3037C22.7053 26.1978 22.5535 26.1519 22.4068 26.1813L19.4535 26.5187C19.2916 26.551 19.1607 26.67 19.1128 26.828C19.065 26.986 19.108 27.1575 19.2247 27.2743L19.8995 27.949L18.6332 29.2154C17.2495 30.599 16.9201 32.727 17.8315 34.4586C18.6094 35.9365 18.6453 37.0082 18.6346 37.6245C18.6325 37.7458 18.6795 37.8627 18.7652 37.9487C18.8509 38.0346 18.9678 38.0821 19.0891 38.0802C19.7102 38.0707 20.7771 38.1036 22.2554 38.8819C23.9864 39.7934 26.1141 39.463 27.4974 38.0796L28.7637 36.8133L29.4385 37.4881C29.5552 37.6048 29.7268 37.6479 29.8848 37.6C30.0429 37.5522 30.1618 37.4212 30.1941 37.2593L30.5315 34.306C30.5609 34.1592 30.5149 34.0075 30.4091 33.9016C30.3032 33.7958 30.1515 33.7498 30.0047 33.7792L27.0514 34.1166C26.8895 34.1489 26.7585 34.2678 26.7107 34.4258C26.6628 34.5838 26.7059 34.7554 26.8226 34.8721L27.4974 35.5469L26.8622 36.1821C25.6035 37.4408 23.6111 37.5831 22.1863 36.5161L21.7727 36.2064L26.8643 31.1148L27.814 32.0645C27.9888 32.2394 28.2723 32.2394 28.4472 32.0645L29.0803 31.4314C29.2552 31.2565 29.2552 30.9731 29.0803 30.7982L28.1306 29.8485L30.3532 27.6261C30.9495 27.7836 31.6096 27.6361 32.0771 27.1686C32.7765 26.4693 32.7765 25.3353 32.0771 24.6359ZM31.1274 26.2189C30.9525 26.3938 30.6691 26.3938 30.4942 26.2189C30.3194 26.0441 30.3194 25.7606 30.4942 25.5858C30.6691 25.4109 30.9525 25.4109 31.1274 25.5858C31.3022 25.7606 31.3022 26.0441 31.1274 26.2189Z" fill="#19A8D5"/>
</g>
</g>
<defs>
<clipPath id="clip0">
<rect width="50" height="50" fill="white"/>
</clipPath>
<clipPath id="clip1">
<rect width="15.282" height="15.282" fill="white" transform="translate(17.3196 24.1116)"/>
</clipPath>
</defs>
</svg>
