<svg width="50" height="50" viewBox="0 0 50 50" fill="none" xmlns="http://www.w3.org/2000/svg">
<g clip-path="url(#clip0)">
<path d="M29.5791 5.51251C28.4244 3.81452 27.4056 2.25236 26.4548 0.826045C26.3189 0.622286 26.1152 0.418527 25.9114 0.282687C25.0964 -0.260671 24.0097 0.0110079 23.4663 0.826045C22.5833 2.25236 21.5645 3.7466 20.342 5.51251C14.9763 13.3912 6.96179 25.2772 6.96179 32.0691C6.96179 37.0273 8.99939 41.51 12.2595 44.7701C15.5197 47.9624 20.0024 50 24.9605 50C29.9187 50 34.4014 47.9624 37.6615 44.7022C40.9217 41.4421 42.9593 36.9594 42.9593 32.0012C42.9593 25.2092 34.9447 13.3912 29.5791 5.51251ZM35.2164 42.2571C32.5676 44.906 28.9678 46.4681 24.9605 46.4681C20.9533 46.4681 17.3535 44.8381 14.7046 42.2571C12.0558 39.6082 10.4936 36.0085 10.4936 32.0012C10.4936 26.296 18.1686 14.9534 23.2625 7.41426C23.8738 6.53131 24.4172 5.64835 24.9605 4.90123C25.5039 5.64835 26.0473 6.53131 26.6585 7.41426C31.7525 15.0213 39.4275 26.296 39.4275 32.0012C39.4275 36.0085 37.7974 39.6082 35.2164 42.2571Z" fill="#19A8D5"/>
<path d="M19.464 36V27.008L17.224 28.848L16.104 27.52L19.64 24.672H21.384V36H19.464ZM26.3496 36V34.24L30.7176 29.952C31.4856 29.2053 31.8696 28.464 31.8696 27.728C31.8696 27.2053 31.699 26.784 31.3576 26.464C31.0163 26.144 30.5843 25.984 30.0616 25.984C29.5283 25.984 29.091 26.1653 28.7496 26.528C28.419 26.88 28.2163 27.344 28.1416 27.92L26.2696 27.632C26.387 26.6827 26.7976 25.904 27.5016 25.296C28.2056 24.688 29.0696 24.384 30.0936 24.384C31.139 24.384 32.0296 24.6773 32.7656 25.264C33.5016 25.8507 33.8696 26.6613 33.8696 27.696C33.8696 28.368 33.7096 28.9707 33.3896 29.504C33.0803 30.0267 32.6323 30.5653 32.0456 31.12L28.7816 34.24H33.8856V36H26.3496Z" fill="#19A8D5"/>
</g>
<defs>
<clipPath id="clip0">
<rect width="50" height="50" fill="white"/>
</clipPath>
</defs>
</svg>
