<svg width="50" height="50" viewBox="0 0 50 50" fill="none" xmlns="http://www.w3.org/2000/svg">
<g clip-path="url(#clip0)">
<path d="M29.5791 5.51251C28.4244 3.81452 27.4056 2.25236 26.4548 0.826045C26.3189 0.622286 26.1152 0.418527 25.9114 0.282687C25.0964 -0.260671 24.0097 0.0110079 23.4663 0.826045C22.5833 2.25236 21.5645 3.7466 20.342 5.51251C14.9763 13.3912 6.96179 25.2772 6.96179 32.0691C6.96179 37.0273 8.99939 41.51 12.2595 44.7701C15.5197 47.9624 20.0024 50 24.9605 50C29.9187 50 34.4014 47.9624 37.6615 44.7022C40.9217 41.4421 42.9593 36.9594 42.9593 32.0012C42.9593 25.2092 34.9447 13.3912 29.5791 5.51251ZM35.2164 42.2571C32.5676 44.906 28.9678 46.4681 24.9605 46.4681C20.9533 46.4681 17.3535 44.8381 14.7046 42.2571C12.0558 39.6082 10.4936 36.0085 10.4936 32.0012C10.4936 26.296 18.1686 14.9534 23.2625 7.41426C23.8738 6.53131 24.4172 5.64835 24.9605 4.90123C25.5039 5.64835 26.0473 6.53131 26.6585 7.41426C31.7525 15.0213 39.4275 26.296 39.4275 32.0012C39.4275 36.0085 37.7974 39.6082 35.2164 42.2571Z" fill="#19A8D5"/>
<path d="M19.464 36V27.008L17.224 28.848L16.104 27.52L19.64 24.672H21.384V36H19.464ZM28.6376 30.864V29.328H29.1496C30.7603 29.328 31.5656 28.7573 31.5656 27.616C31.5656 27.1253 31.3896 26.7307 31.0376 26.432C30.6963 26.1333 30.275 25.984 29.7736 25.984C29.315 25.984 28.9256 26.1173 28.6056 26.384C28.2963 26.6507 28.083 27.0027 27.9656 27.44L26.1576 26.976C26.3603 26.208 26.803 25.584 27.4856 25.104C28.1683 24.624 28.9576 24.384 29.8536 24.384C30.899 24.384 31.7683 24.656 32.4616 25.2C33.155 25.744 33.5016 26.5067 33.5016 27.488C33.5016 28.096 33.315 28.64 32.9416 29.12C32.5683 29.5893 32.0776 29.8987 31.4696 30.048V30.08C32.163 30.2187 32.723 30.5333 33.1496 31.024C33.587 31.5147 33.8056 32.1067 33.8056 32.8C33.8056 33.8987 33.411 34.7573 32.6216 35.376C31.8323 35.984 30.9096 36.288 29.8536 36.288C28.851 36.288 27.987 36.0693 27.2616 35.632C26.5363 35.1947 26.0296 34.5227 25.7416 33.616L27.5336 33.056C27.6723 33.5253 27.939 33.9093 28.3336 34.208C28.7283 34.5067 29.2136 34.656 29.7896 34.656C30.355 34.656 30.8403 34.5013 31.2456 34.192C31.6616 33.8827 31.8696 33.4133 31.8696 32.784C31.8696 32.3253 31.715 31.9467 31.4056 31.648C31.107 31.3387 30.7603 31.1307 30.3656 31.024C29.9816 30.9173 29.5656 30.864 29.1176 30.864H28.6376Z" fill="#19A8D5"/>
</g>
<defs>
<clipPath id="clip0">
<rect width="50" height="50" fill="white"/>
</clipPath>
</defs>
</svg>
