<svg width="50" height="50" viewBox="0 0 50 50" fill="none" xmlns="http://www.w3.org/2000/svg">
<g clip-path="url(#clip0)">
<path d="M29.5791 5.51251C28.4244 3.81452 27.4056 2.25236 26.4548 0.826045C26.3189 0.622286 26.1152 0.418527 25.9114 0.282687C25.0964 -0.260671 24.0097 0.0110079 23.4663 0.826045C22.5833 2.25236 21.5645 3.7466 20.342 5.51251C14.9763 13.3912 6.96179 25.2772 6.96179 32.0691C6.96179 37.0273 8.99939 41.51 12.2595 44.7701C15.5197 47.9624 20.0024 50 24.9605 50C29.9187 50 34.4014 47.9624 37.6615 44.7022C40.9217 41.4421 42.9593 36.9594 42.9593 32.0012C42.9593 25.2092 34.9447 13.3912 29.5791 5.51251ZM35.2164 42.2571C32.5676 44.906 28.9678 46.4681 24.9605 46.4681C20.9533 46.4681 17.3535 44.8381 14.7046 42.2571C12.0558 39.6082 10.4936 36.0085 10.4936 32.0012C10.4936 26.296 18.1686 14.9534 23.2625 7.41426C23.8738 6.53131 24.4172 5.64835 24.9605 4.90123C25.5039 5.64835 26.0473 6.53131 26.6585 7.41426C31.7525 15.0213 39.4275 26.296 39.4275 32.0012C39.4275 36.0085 37.7974 39.6082 35.2164 42.2571Z" fill="#19A8D5"/>
<path d="M21.242 37V35.02L26.156 30.196C27.02 29.356 27.452 28.522 27.452 27.694C27.452 27.106 27.26 26.632 26.876 26.272C26.492 25.912 26.006 25.732 25.418 25.732C24.818 25.732 24.326 25.936 23.942 26.344C23.57 26.74 23.342 27.262 23.258 27.91L21.152 27.586C21.284 26.518 21.746 25.642 22.538 24.958C23.33 24.274 24.302 23.932 25.454 23.932C26.63 23.932 27.632 24.262 28.46 24.922C29.288 25.582 29.702 26.494 29.702 27.658C29.702 28.414 29.522 29.092 29.162 29.692C28.814 30.28 28.31 30.886 27.65 31.51L23.978 35.02H29.72V37H21.242Z" fill="#19A8D5"/>
</g>
<defs>
<clipPath id="clip0">
<rect width="50" height="50" fill="white"/>
</clipPath>
</defs>
</svg>
