<svg width="50" height="50" viewBox="0 0 50 50" fill="none" xmlns="http://www.w3.org/2000/svg">
<g clip-path="url(#clip0)">
<path d="M29.5791 5.51251C28.4244 3.81452 27.4056 2.25236 26.4548 0.826045C26.3189 0.622286 26.1152 0.418527 25.9114 0.282687C25.0964 -0.260671 24.0097 0.0110079 23.4663 0.826045C22.5833 2.25236 21.5645 3.7466 20.342 5.51251C14.9763 13.3912 6.96179 25.2772 6.96179 32.0691C6.96179 37.0273 8.99939 41.51 12.2595 44.7701C15.5197 47.9624 20.0024 50 24.9605 50C29.9187 50 34.4014 47.9624 37.6615 44.7022C40.9217 41.4421 42.9593 36.9594 42.9593 32.0012C42.9593 25.2092 34.9447 13.3912 29.5791 5.51251ZM35.2164 42.2571C32.5676 44.906 28.9678 46.4681 24.9605 46.4681C20.9533 46.4681 17.3535 44.8381 14.7046 42.2571C12.0558 39.6082 10.4936 36.0085 10.4936 32.0012C10.4936 26.296 18.1686 14.9534 23.2625 7.41426C23.8738 6.53131 24.4172 5.64835 24.9605 4.90123C25.5039 5.64835 26.0473 6.53131 26.6585 7.41426C31.7525 15.0213 39.4275 26.296 39.4275 32.0012C39.4275 36.0085 37.7974 39.6082 35.2164 42.2571Z" fill="#19A8D5"/>
<path d="M29.09 24.256V26.2H23.888L23.762 28.954C24.158 28.846 24.656 28.792 25.256 28.792C26.54 28.792 27.59 29.152 28.406 29.872C29.234 30.58 29.648 31.564 29.648 32.824C29.648 34.192 29.204 35.284 28.316 36.1C27.428 36.916 26.324 37.324 25.004 37.324C23.96 37.324 23.066 37.078 22.322 36.586C21.578 36.094 21.038 35.41 20.702 34.534L22.664 33.814C22.844 34.318 23.144 34.726 23.564 35.038C23.996 35.338 24.494 35.488 25.058 35.488C25.73 35.488 26.294 35.272 26.75 34.84C27.206 34.396 27.434 33.802 27.434 33.058C27.434 32.158 27.158 31.51 26.606 31.114C26.066 30.718 25.394 30.52 24.59 30.52C23.522 30.52 22.532 30.754 21.62 31.222L21.836 24.256H29.09Z" fill="#19A8D5"/>
</g>
<defs>
<clipPath id="clip0">
<rect width="50" height="50" fill="white"/>
</clipPath>
</defs>
</svg>
