<svg width="16" height="16" viewBox="0 0 16 16" fill="none" xmlns="http://www.w3.org/2000/svg">
<g clip-path="url(#clip0)">
<path d="M8.00195 8.00601C5.79595 8.00601 4.00195 6.21201 4.00195 4.00601C4.00195 1.80101 5.79595 0.00601196 8.00195 0.00601196C10.208 0.00601196 12.002 1.80101 12.002 4.00601C12.002 6.21201 10.208 8.00601 8.00195 8.00601ZM8.00195 2.00601C6.89895 2.00601 6.00195 2.90201 6.00195 4.00601C6.00195 5.10901 6.89895 6.00601 8.00195 6.00601C9.10495 6.00601 10.002 5.10901 10.002 4.00601C10.002 2.90201 9.10495 2.00601 8.00195 2.00601Z" fill="#19A8D5"/>
<path d="M16.002 16.006H0.00195312V15.006C0.00195312 11.473 3.29195 9.00601 8.00195 9.00601C12.712 9.00601 16.002 11.473 16.002 15.006V16.006ZM2.16095 14.006H13.844C13.246 12.198 11.011 11.006 8.00295 11.006C4.99495 11.006 2.75895 12.198 2.16095 14.006Z" fill="#19A8D5"/>
</g>
<defs>
<clipPath id="clip0">
<rect width="16" height="16" fill="white"/>
</clipPath>
</defs>
</svg>
