<svg width="45" height="45" viewBox="0 0 45 45" fill="none" xmlns="http://www.w3.org/2000/svg">
<path d="M28.5138 26.1128C23.2068 26.1128 18.8887 21.794 18.8887 16.487C18.8887 11.1799 23.2068 6.86249 28.5138 6.86249C33.8209 6.86249 38.1383 11.1799 38.1383 16.487C38.1383 21.794 33.8209 26.1128 28.5138 26.1128ZM28.5138 9.6695C24.7542 9.6695 21.6957 12.7274 21.6957 16.487C21.6957 20.2466 24.7542 23.3058 28.5138 23.3058C32.2727 23.3058 35.3313 20.2466 35.3313 16.487C35.3313 12.7274 32.2727 9.6695 28.5138 9.6695Z" fill="#19A8D5"/>
<path d="M28.5134 21.6256C31.3513 21.6256 33.6518 19.325 33.6518 16.4872C33.6518 13.6493 31.3513 11.3488 28.5134 11.3488C25.6755 11.3488 23.375 13.6493 23.375 16.4872C23.375 19.325 25.6755 21.6256 28.5134 21.6256Z" fill="#FF0080"/>
<path d="M27.1104 0.0436401H29.9174V5.18205H27.1104V0.0436401Z" fill="#19A8D5" fill-opacity="0.5"/>
<path d="M39.8179 15.0834H44.9563V17.8904H39.8179V15.0834Z" fill="#19A8D5" fill-opacity="0.5"/>
<path d="M35.5059 25.4741L37.4903 23.4897L41.1233 27.1227L39.1389 29.1071L35.5059 25.4741Z" fill="#19A8D5" fill-opacity="0.5"/>
<path d="M15.8892 5.85364L17.8736 3.86923L21.5066 7.50225L19.5222 9.48666L15.8892 5.85364Z" fill="#19A8D5" fill-opacity="0.5"/>
<path d="M35.5083 7.50446L39.1413 3.87144L41.1257 5.85584L37.4927 9.48886L35.5083 7.50446Z" fill="#19A8D5" fill-opacity="0.5"/>
<path d="M23.0698 44.9564H11.5833C5.22009 44.9564 0.0439453 39.7796 0.0439453 33.4171C0.0439453 27.0546 5.22009 21.8777 11.5833 21.8777C16.1789 21.8777 20.2662 24.5696 22.1103 28.6912C22.4269 28.6541 22.7469 28.635 23.0696 28.635C27.5693 28.635 31.2304 32.296 31.2304 36.7958C31.2304 41.2956 27.5693 44.9564 23.0698 44.9564ZM11.5833 24.685C6.76821 24.685 2.85096 28.6022 2.85096 33.4173C2.85096 38.2323 6.76821 42.1496 11.5833 42.1496H23.0698C26.0221 42.1496 28.4233 39.7483 28.4233 36.796C28.4233 33.8437 26.0221 31.4425 23.0698 31.4425C22.5688 31.4425 22.0795 31.511 21.6155 31.6453C20.8884 31.8523 20.1249 31.4519 19.8907 30.7297C18.7194 27.1136 15.3806 24.685 11.5833 24.685Z" fill="#19A8D5"/>
</svg>


