<svg width="51" height="40" viewBox="0 0 51 40" fill="none" xmlns="http://www.w3.org/2000/svg">
<path d="M34.7502 32.5001H2.25C1.5596 32.5001 1 31.9411 1 31.2501V13.7501C1 13.0591 1.5596 12.5001 2.25 12.5001H34.7502C35.4406 12.5001 36.0002 13.0591 36.0002 13.7501V31.2501C36.0002 31.9411 35.4404 32.5001 34.7502 32.5001ZM3.5 30.0001H33.5002V15.0001H3.5V30.0001Z" fill="#19A8D5"/>
<path d="M41.0001 26.3974H38.5001V9.99976H6.95605V7.49976H39.7501C40.4405 7.49976 41.0001 8.05876 41.0001 8.74976V26.3974Z" fill="#7FC7DD"/>
<path d="M29.7501 27.5002H24.2349V25.0002H28.5001V20.0002H24.2349V17.5002H29.7501C30.4405 17.5002 31.0001 18.0592 31.0001 18.7502V26.2502C31.0001 26.9412 30.4405 27.5002 29.7501 27.5002Z" fill="#19A8D5"/>
<path d="M12.7652 27.5002H7.25C6.5596 27.5002 6 26.9412 6 26.2502V18.7502C6 18.0592 6.5596 17.5002 7.25 17.5002H12.7652V20.0002H8.5V25.0002H12.7652V27.5002Z" fill="#19A8D5"/>
<path d="M21.956 24.0798C21.956 22.4782 20.6528 21.1758 19.0514 21.1758H17.9484C17.7256 21.1758 17.5444 20.994 17.5444 20.7706C17.5444 20.5472 17.7256 20.3666 17.9484 20.3666H20.706V17.8666H19.7502V17.5004H17.2502V17.955C15.9856 18.2688 15.0444 19.4102 15.0444 20.7706C15.0444 22.3722 16.3468 23.6758 17.9484 23.6758H19.0514C19.2748 23.6758 19.456 23.8564 19.456 24.0798C19.456 24.3032 19.2748 24.4838 19.0514 24.4838H16.2944V26.9838H17.2502V27.5002H19.7502V26.8952C21.0148 26.5812 21.956 25.44 21.956 24.0798Z" fill="#FF0080"/>
</svg>
