<svg width="41" height="33" viewBox="0 0 41 33" fill="none" xmlns="http://www.w3.org/2000/svg">
<path d="M38.9268 5H22.1274L21.1142 0.9472C20.975 0.3906 20.4758 0 19.902 0H9.90196C9.32816 0 8.82896 0.3906 8.68976 0.9472L7.67676 5H1.42676C0.735758 5 0.176758 5.559 0.176758 6.25V31.25C0.176758 31.941 0.735758 32.5 1.42676 32.5H38.9268C39.6178 32.5 40.1768 31.941 40.1768 31.25V6.25C40.1768 5.559 39.6178 5 38.9268 5ZM37.6768 30H2.67676V7.5H8.65136C9.22476 7.5 9.72476 7.1098 9.86396 6.5536L10.8786 2.5H18.9254L19.9402 6.5536C20.0794 7.1098 20.5794 7.5 21.1528 7.5H37.6768V30Z" fill="#19A8D5"/>
<path d="M31.4268 13.7502C32.8075 13.7502 33.9268 12.631 33.9268 11.2502C33.9268 9.86953 32.8075 8.75024 31.4268 8.75024C30.046 8.75024 28.9268 9.86953 28.9268 11.2502C28.9268 12.631 30.046 13.7502 31.4268 13.7502Z" fill="#FF0080"/>
<path d="M15.1768 10C10.3526 10 6.42676 13.9258 6.42676 18.75C6.42676 23.5742 10.3526 27.5 15.1768 27.5C20.001 27.5 23.9268 23.5742 23.9268 18.75C23.9268 13.9258 20.001 10 15.1768 10ZM15.1768 25C11.7308 25 8.92676 22.196 8.92676 18.75C8.92676 15.304 11.7308 12.5 15.1768 12.5C18.6228 12.5 21.4268 15.304 21.4268 18.75C21.4268 22.196 18.6228 25 15.1768 25Z" fill="#7FC7DD"/>
<path d="M27.6768 18.7496H35.1768V21.2496H27.6768V18.7496Z" fill="#7FC7DD"/>
<path d="M27.6768 23.7496H35.1768V26.2496H27.6768V23.7496Z" fill="#7FC7DD"/>
</svg>
