<svg width="40" height="33" viewBox="0 0 40 33" fill="none" xmlns="http://www.w3.org/2000/svg">
<path d="M38.75 5H21.9506L20.9374 0.9472C20.7982 0.3906 20.299 0 19.7252 0H9.7252C9.1514 0 8.6522 0.3906 8.513 0.9472L7.5 5H1.25C0.559 5 0 5.559 0 6.25V31.25C0 31.941 0.559 32.5 1.25 32.5H38.75C39.441 32.5 40 31.941 40 31.25V6.25C40 5.559 39.441 5 38.75 5ZM37.5 30H2.5V7.5H8.4746C9.048 7.5 9.548 7.1098 9.6872 6.5536L10.7018 2.5H18.7486L19.7634 6.5536C19.9026 7.1098 20.4026 7.5 20.976 7.5H37.5V30Z" fill="#19A8D5"/>
<path d="M31.25 13.7502C32.6307 13.7502 33.75 12.631 33.75 11.2502C33.75 9.86953 32.6307 8.75024 31.25 8.75024C29.8693 8.75024 28.75 9.86953 28.75 11.2502C28.75 12.631 29.8693 13.7502 31.25 13.7502Z" fill="#FF0080"/>
<path d="M15 10C10.1758 10 6.25 13.9258 6.25 18.75C6.25 23.5742 10.1758 27.5 15 27.5C19.8242 27.5 23.75 23.5742 23.75 18.75C23.75 13.9258 19.8242 10 15 10ZM15 25C11.554 25 8.75 22.196 8.75 18.75C8.75 15.304 11.554 12.5 15 12.5C18.446 12.5 21.25 15.304 21.25 18.75C21.25 22.196 18.446 25 15 25Z" fill="#7FC7DD"/>
<path d="M27.5 18.7495H35V21.2495H27.5V18.7495Z" fill="#7FC7DD"/>
<path d="M27.5 23.7495H35V26.2495H27.5V23.7495Z" fill="#7FC7DD"/>
</svg>
