<svg width="27" height="27" viewBox="0 0 27 27" fill="none" xmlns="http://www.w3.org/2000/svg">
<path d="M13.4727 16.1891C14.9396 16.1891 16.1891 14.9939 16.1891 13.4728C16.1891 12.8752 15.9717 12.332 15.7001 11.8974C15.2112 11.1911 14.3963 10.7565 13.5271 10.7565C12.6035 10.7565 11.8429 11.1911 11.354 11.8974C11.0281 12.332 10.8651 12.8752 10.8651 13.4728C10.8108 14.9939 12.0059 16.1891 13.4727 16.1891Z" fill="#F1F1F1"/>
<path d="M19.3942 10.2133V7.93155V7.60559H19.0683H16.7866V10.2133H19.3942Z" fill="#F1F1F1"/>
<path d="M13.4729 0C6.03018 0 0 6.03019 0 13.4729C0 20.9155 6.03018 26.9457 13.4729 26.9457C20.9155 26.9457 26.9457 20.9155 26.9457 13.4729C27 6.08452 20.9155 0 13.4729 0ZM21.1328 11.9517V18.2536C21.1328 19.8833 19.829 21.2414 18.1449 21.2414H8.74652C7.11673 21.2414 5.75855 19.9376 5.75855 18.2536V11.9517V8.80079C5.75855 7.17107 7.06239 5.81288 8.74652 5.81288H18.1449C19.7747 5.81288 21.1328 7.11673 21.1328 8.80079V11.9517Z" fill="#F1F1F1"/>
<path d="M17.6559 13.5271C17.6559 15.8631 15.7545 17.7102 13.4728 17.7102C11.1911 17.7102 9.28973 15.8088 9.28973 13.5271C9.28973 12.9838 9.3984 12.4406 9.61569 11.9517H7.33398V18.2535C7.33398 19.0683 7.9859 19.7202 8.80083 19.7202H18.1992C19.0141 19.7202 19.666 19.0683 19.666 18.2535V11.9517H17.3843C17.5473 12.4406 17.6559 12.9295 17.6559 13.5271Z" fill="#F1F1F1"/>
</svg>
