<svg width="27" height="27" viewBox="0 0 27 27" fill="none" xmlns="http://www.w3.org/2000/svg">
<path d="M13.4729 0C6.03018 0 0 6.03019 0 13.4729C0 20.9155 6.03018 26.9457 13.4729 26.9457C20.9155 26.9457 26.9457 20.9155 26.9457 13.4729C27 6.08452 20.9155 0 13.4729 0ZM16.841 13.9618H14.668C14.668 17.493 14.668 21.7847 14.668 21.7847H11.4084C11.4084 21.7847 11.4084 17.493 11.4084 13.9618H9.88733V11.2455H11.4084V9.4527C11.4084 8.14894 12.006 6.19317 14.668 6.19317H17.0583V8.85512C17.0583 8.85512 15.5916 8.85512 15.3199 8.85512C15.0483 8.85512 14.6137 9.01814 14.6137 9.61571V11.2455H17.1127L16.841 13.9618Z" fill="#F1F1F1"/>
</svg>
