<svg width="40" height="40" viewBox="0 0 40 40" fill="none" xmlns="http://www.w3.org/2000/svg">
<path d="M20.625 40C21.6605 40 22.5 39.1605 22.5 38.125C22.5 37.0895 21.6605 36.25 20.625 36.25C19.5895 36.25 18.75 37.0895 18.75 38.125C18.75 39.1605 19.5895 40 20.625 40Z" fill="#FF0080"/>
<path d="M35.6221 40C36.6576 40 37.4971 39.1605 37.4971 38.125C37.4971 37.0895 36.6576 36.25 35.6221 36.25C34.5865 36.25 33.7471 37.0895 33.7471 38.125C33.7471 39.1605 34.5865 40 35.6221 40Z" fill="#FF0080"/>
<path d="M26.8721 40C27.9076 40 28.7471 39.1605 28.7471 38.125C28.7471 37.0895 27.9076 36.25 26.8721 36.25C25.8365 36.25 24.9971 37.0895 24.9971 38.125C24.9971 39.1605 25.8365 40 26.8721 40Z" fill="#FF0080"/>
<path d="M4.375 40C5.41053 40 6.25 39.1605 6.25 38.125C6.25 37.0895 5.41053 36.25 4.375 36.25C3.33947 36.25 2.5 37.0895 2.5 38.125C2.5 39.1605 3.33947 40 4.375 40Z" fill="#FF0080"/>
<path d="M36.25 17.5H35V13.75C35 13.059 34.4404 12.5 33.75 12.5H28.75C28.0596 12.5 27.5 13.059 27.5 13.75V17.5H26.25C25.8112 17.5 25.3916 17.5744 25 17.7042V11.25C25 9.1822 23.4302 7.5 21.5002 7.5H17.5V1.25C17.5 0.559 16.9404 0 16.25 0H8.75C8.0596 0 7.5 0.559 7.5 1.25V7.5H3.4998C1.5698 7.5 0 9.1822 0 11.25V33.75C0 35.8178 1.5698 37.5 3.4998 37.5H21.5002C22.3612 37.5 23.149 37.1638 23.7592 36.6094C24.4224 37.1614 25.2934 37.5 26.2498 37.5H36.2498C38.3176 37.5 39.9998 35.9302 39.9998 34.0002V20.9998C40 19.0698 38.3178 17.5 36.25 17.5ZM30 15H32.5V17.5H30V15ZM10 2.5H15V7.5H10V2.5ZM21.5002 35H3.4998C2.9578 35 2.5 34.4274 2.5 33.75V11.25C2.5 10.5726 2.9578 10 3.4998 10H21.5002C22.0422 10 22.5 10.5726 22.5 11.25V33.75C22.5 34.4274 22.0422 35 21.5002 35ZM37.5 34.0002C37.5 34.5422 36.9274 35 36.25 35H26.25C25.5726 35 25 34.5422 25 34.0002V33.75V20.9998C25 20.4578 25.5726 20 26.25 20H36.25C36.9274 20 37.5 20.4578 37.5 20.9998V34.0002Z" fill="#19A8D5"/>
<path d="M6.25 13.75H8.75001V31.25H6.25V13.75Z" fill="#19A8D5" fill-opacity="0.5"/>
<path d="M11.25 13.75H13.75V31.25H11.25V13.75Z" fill="#19A8D5" fill-opacity="0.5"/>
<path d="M16.25 13.75H18.75V31.25H16.25V13.75Z" fill="#19A8D5" fill-opacity="0.5"/>
<path d="M31.606 31.0419L33.3735 29.2744L35.87 31.7709L34.1025 33.5384L31.606 31.0419Z" fill="#19A8D5" fill-opacity="0.5"/>
<path d="M30.0225 22.8124L27.5225 26.5624H32.5225L30.0225 22.8124Z" fill="#19A8D5" fill-opacity="0.5"/>
</svg>
