<svg width="40" height="40" viewBox="0 0 40 40" fill="none" xmlns="http://www.w3.org/2000/svg">
<path d="M14.4014 9.8866L16.1651 8.12282L19.2518 11.2095L17.488 12.9733L14.4014 9.8866Z" fill="#7FC7DD"/>
<path d="M19.2212 14.7073L20.985 12.9435L27.0511 19.0096L25.2873 20.7734L19.2212 14.7073Z" fill="#7FC7DD"/>
<path d="M27.02 22.5126L28.7838 20.7488L31.8707 23.8358L30.107 25.5995L27.02 22.5126Z" fill="#7FC7DD"/>
<path d="M16.0732 39.961C15.1852 39.961 14.2969 39.6223 13.6202 38.9462L10.479 35.8043C10.245 35.5704 10.1135 35.2524 10.1135 34.9223C10.1135 34.5909 10.245 34.2741 10.479 34.0402C11.0826 33.4372 11.4151 32.6343 11.4151 31.7816C11.4151 30.9277 11.0826 30.1248 10.479 29.5216C9.27053 28.3132 7.16764 28.3132 5.9592 29.5216C5.72526 29.7556 5.40788 29.8871 5.07712 29.8871C4.74637 29.8871 4.42899 29.7556 4.19505 29.5216L1.05378 26.3797C-0.299177 25.0274 -0.299177 22.8261 1.05378 21.4737L21.4745 1.05321C22.8275 -0.299149 25.0276 -0.299149 26.3805 1.05321L29.5224 4.19507C29.7563 4.42902 29.8879 4.74699 29.8879 5.07715C29.8879 5.4085 29.7563 5.72528 29.5224 5.95923C28.9182 6.56345 28.5856 7.36508 28.5856 8.21782C28.5856 9.07055 28.9188 9.87338 29.5224 10.4778C30.7302 11.6876 32.8331 11.685 34.0416 10.4778C34.2755 10.2439 34.5929 10.1123 34.9236 10.1123C35.2544 10.1123 35.5718 10.2439 35.8057 10.4778L38.947 13.6197C39.6005 14.2726 39.9606 15.1437 39.9606 16.0721C39.9606 17.0017 39.6005 17.8728 38.947 18.5257L18.5263 38.9462C17.85 39.6223 16.9619 39.961 16.0732 39.961ZM13.0288 34.826L15.3844 37.1822C15.7644 37.5623 16.3822 37.5611 16.7623 37.1822L37.1828 16.7617C37.3655 16.5791 37.4655 16.3342 37.4655 16.0723C37.4655 15.8116 37.3657 15.5667 37.1828 15.384L34.8272 13.0278C33.9246 13.6017 32.8768 13.9099 31.7816 13.9099C30.2617 13.9099 28.8333 13.3179 27.7582 12.2422C26.6831 11.1665 26.0905 9.73745 26.0905 8.21821C26.0905 7.12295 26.3981 6.0752 26.9726 5.17376L24.6164 2.81756C24.2363 2.43631 23.6185 2.43631 23.2385 2.81756L2.81794 23.2379C2.44446 23.6119 2.44446 24.2417 2.81794 24.6158L5.17473 26.9732C7.37364 25.5819 10.3275 25.8402 12.2431 27.7577C13.3182 28.8322 13.9103 30.2612 13.9103 31.7816C13.9103 32.8757 13.6027 33.9244 13.0288 34.826Z" fill="#19A8D5"/>
<path d="M18.9888 24.9092L18.1706 27.7503L16.3777 25.2587L13.3804 25.2218L15.1134 22.8636L14.0792 19.9996L16.9432 21.034L19.3014 19.3008L19.3383 22.2981L21.8299 24.091L18.9888 24.9092Z" fill="#FF0080"/>
</svg>
