<svg width="40" height="40" viewBox="0 0 40 40" fill="none" xmlns="http://www.w3.org/2000/svg">
<path d="M22.5645 11.6456L21.5989 8.75005H13.4007L12.4351 11.6456L10.0645 10.8546L11.3145 7.10465C11.4841 6.59445 11.9615 6.25024 12.4999 6.25024H22.4999C23.0383 6.25024 23.5155 6.59445 23.6853 7.10465L24.9353 10.8546L22.5645 11.6456Z" fill="#19A8D5" fill-opacity="0.5"/>
<path d="M31.2494 36.873H19.166V34.373H31.2494C34.6954 34.373 37.4994 31.569 37.4994 28.123V0H39.9994V28.123C39.9994 32.9474 36.0736 36.873 31.2494 36.873Z" fill="#19A8D5"/>
<path d="M22.3489 40H12.6501C11.8765 40 11.2495 39.373 11.2495 38.5994V32.6468C11.2495 31.8732 11.8765 31.2462 12.6501 31.2462H22.3489C23.1225 31.2462 23.7495 31.8732 23.7495 32.6468V38.5994C23.7495 39.373 23.1225 40 22.3489 40Z" fill="#FF0080"/>
<path d="M25.0002 29.9962H24.6382C22.9256 29.9962 21.3154 29.3284 20.1038 28.1176L17.5 25.5139L14.8956 28.1176C13.684 29.3286 12.074 29.9962 10.3612 29.9962C7.5414 29.9962 4.79 28.8256 2.8118 26.7847C0.918396 24.8303 -0.0782038 22.3047 0.00479623 19.6729C0.0847962 17.1277 1.123 14.7303 2.9284 12.9249C4.8174 11.0365 7.329 9.99646 10 9.99646H24.6386C27.4584 9.99646 30.2098 11.1671 32.1874 13.2081C34.0808 15.1625 35.0774 17.6881 34.9944 20.3199C34.9144 22.8651 33.8762 25.2625 32.0708 27.0679C30.1822 28.9562 27.6712 29.9962 25.0002 29.9962ZM17.5002 22.4963C17.82 22.4963 18.1398 22.6183 18.384 22.8625L21.8716 26.35C22.6004 27.0788 23.6086 27.4963 24.6384 27.4963H25.0004C27.0036 27.4963 28.8872 26.7163 30.3038 25.3003C31.6576 23.9453 32.4364 22.1497 32.4962 20.2417C32.5578 18.2911 31.8108 16.4111 30.3924 14.9475C28.883 13.3899 26.7858 12.4963 24.6392 12.4963H10.0006C7.9968 12.4963 6.1132 13.2763 4.6966 14.6923C3.3428 16.0473 2.564 17.8429 2.5042 19.7509C2.4426 21.7015 3.1896 23.5815 4.608 25.0451C6.1174 26.6027 8.2146 27.4963 10.3618 27.4963C11.3914 27.4963 12.3998 27.0788 13.1286 26.35L16.6168 22.8625C16.8606 22.6183 17.1804 22.4963 17.5002 22.4963Z" fill="#19A8D5"/>
</svg>
