<svg width="39" height="40" viewBox="0 0 39 40" fill="none" xmlns="http://www.w3.org/2000/svg">
<path d="M24.0001 39.4937H15.3925C10.1267 39.4937 5.87354 35.2405 5.87354 29.9747V17.2152C5.87354 16.8101 6.17733 16.5063 6.5824 16.5063C6.98746 16.5063 7.29126 16.8101 7.29126 17.2152V29.8734C7.29126 34.4304 10.9368 38.076 15.4938 38.076H24.1014C28.6583 38.076 32.3039 34.4304 32.3039 29.8734V17.2152C32.3039 16.8101 32.6077 16.5063 33.0128 16.5063C33.4178 16.5063 33.7216 16.8101 33.7216 17.2152V29.8734C33.6204 35.2405 29.3672 39.4937 24.0001 39.4937Z" fill="#19A8D5"/>
<path d="M24.0001 40H15.3925C9.82288 40 5.36719 35.443 5.36719 29.9747V17.2152C5.36719 16.6076 5.87352 16 6.58238 16C7.29124 16 7.79757 16.5063 7.79757 17.2152V29.8734C7.79757 34.1266 11.2406 37.5696 15.4938 37.5696H24.1014C28.3545 37.5696 31.7976 34.1266 31.7976 29.8734V17.2152C31.7976 16.6076 32.3039 16 33.0128 16C33.7216 16 34.2279 16.5063 34.2279 17.2152V29.8734C34.1267 35.443 29.5697 40 24.0001 40ZM6.58238 17.1139C6.48111 17.1139 6.37985 17.2152 6.37985 17.3165V29.9747C6.37985 34.9367 10.4305 38.9873 15.3925 38.9873H24.0001C28.9621 38.9873 33.0128 34.9367 33.0128 29.9747V17.2152C33.0128 17.0127 32.709 17.0127 32.709 17.2152V29.8734C32.709 34.6329 28.7596 38.5823 24.0001 38.5823H15.3925C10.633 38.5823 6.68364 34.6329 6.68364 29.8734V17.2152C6.78491 17.2152 6.68364 17.1139 6.58238 17.1139Z" fill="#19A8D5"/>
<path d="M34.0254 28.0506H32.9115C32.5064 28.0506 32.2026 27.7468 32.2026 27.3417V19.2405C32.2026 18.8354 32.5064 18.5316 32.9115 18.5316H34.0254C35.2406 18.5316 36.2533 19.5443 36.2533 20.7595V25.7215C36.3545 26.9367 35.2406 28.0506 34.0254 28.0506ZM33.6204 26.6329H34.0254C34.5317 26.6329 34.9368 26.2278 34.9368 25.7215V20.7595C34.9368 20.2531 34.5317 19.8481 34.0254 19.8481H33.6204V26.6329Z" fill="#7FC7DD"/>
<path d="M34.0254 28.5569H32.9115C32.3039 28.5569 31.6963 28.0506 31.6963 27.3417V19.2405C31.6963 18.6329 32.2026 18.0253 32.9115 18.0253H34.0254C35.5444 18.0253 36.7596 19.2405 36.7596 20.7594V25.7215C36.8608 27.2405 35.5444 28.5569 34.0254 28.5569ZM32.9115 19.0379C32.8102 19.0379 32.7089 19.1392 32.7089 19.2405V27.3417C32.7089 27.443 32.8102 27.5443 32.9115 27.5443H34.0254C35.0381 27.5443 35.7469 26.7341 35.7469 25.8227V20.8607C35.7469 19.8481 34.9368 19.1392 34.0254 19.1392H32.9115V19.0379ZM34.0254 27.1392H33.114V19.3417H34.0254C34.8355 19.3417 35.4431 19.9493 35.4431 20.7594V25.7215C35.4431 26.5316 34.8355 27.1392 34.0254 27.1392ZM34.1267 20.4556V26.2278C34.3292 26.2278 34.4305 26.0253 34.4305 25.8227V20.8607C34.4305 20.6582 34.3292 20.4556 34.1267 20.4556Z" fill="#7FC7DD"/>
<path d="M19.1394 21.5695C14.5824 21.5695 10.3292 20.2531 6.17733 17.7214C5.9748 17.6202 5.87354 17.4176 5.87354 17.1138V13.6708C5.87354 13.2657 6.17733 12.9619 6.5824 12.9619C6.98746 12.9619 7.29126 13.2657 7.29126 13.6708V16.81C14.8862 21.367 23.2913 21.367 32.3039 16.81V12.5569C32.3039 12.1518 32.6077 11.848 33.0128 11.848C33.4178 11.848 33.7216 12.1518 33.7216 12.5569V17.2151C33.7216 17.4176 33.6204 17.7214 33.3166 17.8227C28.3545 20.2531 23.6963 21.5695 19.1394 21.5695Z" fill="#19A8D5"/>
<path d="M19.1393 22.0759C14.4811 22.0759 10.1267 20.7595 5.87352 18.1266C5.56972 17.924 5.36719 17.519 5.36719 17.1139V13.6709C5.36719 13.0633 5.87352 12.4557 6.58238 12.4557C7.29124 12.4557 7.79757 12.962 7.79757 13.6709V16.5063C15.0887 20.7595 23.19 20.7595 31.7976 16.405V12.4557C31.7976 11.8481 32.3039 11.2405 33.0128 11.2405C33.7216 11.2405 34.2279 11.7468 34.2279 12.4557V17.1139C34.2279 17.519 34.0254 17.924 33.6203 18.1266C28.5571 20.7595 23.7976 22.0759 19.1393 22.0759ZM6.58238 13.4683C6.48111 13.4683 6.37985 13.5696 6.37985 13.6709V17.1139C6.37985 17.2152 6.37985 17.2152 6.48111 17.2152C14.4811 22.1772 23.4938 22.1772 33.0128 17.2152C33.114 17.2152 33.114 17.1139 33.114 17.1139V12.4557C33.114 12.2531 32.8102 12.2531 32.8102 12.4557V17.0126L32.5064 17.1139C23.3925 21.7721 14.6836 21.7721 6.98744 17.1139L6.78491 17.0126V13.6709C6.78491 13.5696 6.68364 13.4683 6.58238 13.4683Z" fill="#19A8D5"/>
<path d="M6.58249 28.0507H5.46857C4.25338 28.0507 3.24072 27.038 3.24072 25.8228V20.8608C3.24072 19.6456 4.25338 18.6329 5.46857 18.6329H6.58249C6.98756 18.6329 7.29136 18.9367 7.29136 19.3418V27.4431C7.29136 27.7469 6.98756 28.0507 6.58249 28.0507ZM5.46857 19.8481C4.96224 19.8481 4.55718 20.2532 4.55718 20.7595V25.7215C4.55718 26.2279 4.96224 26.6329 5.46857 26.6329H5.87363V19.8481H5.46857Z" fill="#7FC7DD"/>
<path d="M6.58248 28.557H5.46855C3.94956 28.557 2.73438 27.3418 2.73438 25.8228V20.8608C2.73438 19.3418 3.94956 18.1266 5.46855 18.1266H6.58248C7.19007 18.1266 7.79767 18.6329 7.79767 19.3418V27.443C7.79767 27.9494 7.19007 28.557 6.58248 28.557ZM5.46855 19.038C4.45589 19.038 3.74703 19.8481 3.74703 20.7595V25.7215C3.74703 26.7342 4.55716 27.443 5.46855 27.443H6.58248C6.68374 27.443 6.78501 27.3418 6.78501 27.2405V19.1392C6.78501 19.038 6.68374 18.9367 6.58248 18.9367H5.46855V19.038ZM6.37994 27.1392H5.46855C4.65843 27.1392 4.05083 26.5317 4.05083 25.7215V20.7595C4.05083 19.9494 4.65843 19.3418 5.46855 19.3418H6.37994V27.1392ZM5.36729 20.4557C5.16475 20.4557 5.06349 20.6582 5.06349 20.8608V25.8228C5.06349 26.0253 5.16475 26.2279 5.36729 26.2279V20.4557Z" fill="#7FC7DD"/>
<path d="M19.038 16.8101H12.6582C7.79749 16.3037 3.03799 11.3417 1.21521 9.21513C0.810145 8.60754 0.506348 7.89868 0.506348 7.08855C0.506348 5.36703 1.92407 3.94931 3.64559 3.84805C9.21521 3.74678 13.7722 2.22779 16.6076 1.0126C18.2279 0.303742 20.0507 0.303742 21.6709 1.0126C24.5063 2.22779 28.962 3.74678 34.6329 3.84805C36.3545 3.84805 37.7722 5.26577 37.7722 7.08855C37.7722 7.89868 37.4684 8.60754 37.0633 9.11387C35.2405 11.2404 30.481 16.2025 25.6203 16.7088L19.038 16.8101ZM17.1139 2.22779C14.1772 3.54425 9.41774 5.1645 3.64559 5.26577C2.63293 5.26577 1.8228 6.07589 1.8228 7.08855C1.8228 7.49362 2.02534 7.99994 2.22787 8.30374C3.54432 9.82273 8.20255 14.9873 12.7595 15.3923H25.4177C29.8734 14.9873 34.5317 9.82273 35.8481 8.30374C36.1519 7.99994 36.2532 7.59488 36.2532 7.08855C36.2532 6.07589 35.4431 5.26577 34.4304 5.26577C28.6582 5.1645 23.8988 3.54425 20.962 2.22779C19.8481 1.72146 18.3291 1.72146 17.1139 2.22779Z" fill="#19A8D5"/>
<path d="M19.038 17.3165H12.6582C7.49367 16.8101 2.63291 11.7468 0.810127 9.51899C0.303797 8.81013 0 8 0 7.08861C0 5.06329 1.62025 3.44304 3.64557 3.34177C9.11392 3.34177 13.5696 1.82278 16.3038 0.607595C18.0253 -0.202532 20.0506 -0.202532 21.7722 0.607595C24.5063 1.82278 28.962 3.34177 34.5316 3.44304C36.557 3.44304 38.1772 5.16456 38.1772 7.18987C38.1772 8.10126 37.8734 8.91139 37.2658 9.62025C35.443 11.7468 30.5823 16.9114 25.519 17.4177L19.038 17.3165ZM19.038 1.01266C18.2278 1.01266 17.4177 1.21519 16.7089 1.51899C13.8734 2.83544 9.21519 4.35443 3.5443 4.4557C2.22785 4.4557 1.01266 5.67089 1.01266 7.08861C1.01266 7.6962 1.21519 8.3038 1.62025 8.81013C3.34177 10.8354 8 15.7975 12.7595 16.2025H25.519C30.1772 15.6962 34.7342 10.8354 36.557 8.81013C36.962 8.3038 37.1646 7.6962 37.1646 7.08861C37.1646 5.67089 35.9494 4.4557 34.5316 4.35443C28.8608 4.25316 24.3038 2.73418 21.3671 1.41772C20.6582 1.21519 19.8481 1.01266 19.038 1.01266ZM12.7595 15.8987C8.10127 15.4937 3.24051 10.2278 1.92405 8.60759C1.51899 8.20253 1.31646 7.6962 1.31646 7.08861C1.31646 5.77215 2.32911 4.75949 3.64557 4.75949C9.41772 4.65823 13.9747 3.13924 16.9114 1.82278C18.3291 1.21519 19.9494 1.21519 21.2658 1.82278C24.1013 3.13924 28.7595 4.65823 34.5316 4.75949C35.7468 4.75949 36.8608 5.87342 36.8608 7.08861C36.8608 7.6962 36.6582 8.20253 36.3544 8.60759C35.038 10.2278 30.1772 15.3924 25.6203 15.8987H12.7595ZM19.038 2.32911C18.4304 2.32911 17.8228 2.43038 17.2152 2.73418C14.3797 4.05063 9.51899 5.67089 3.64557 5.77215C2.93671 5.77215 2.32911 6.37975 2.32911 7.08861C2.32911 7.3924 2.43038 7.6962 2.63291 8C3.94937 9.51899 8.50633 14.481 12.7595 14.9873H25.3165C29.4684 14.5823 34.0253 9.51899 35.3418 8C35.5443 7.79747 35.6456 7.49367 35.6456 7.08861C35.6456 6.37975 35.038 5.77215 34.3291 5.77215C28.4557 5.67089 23.6962 4.05063 20.6582 2.73418C20.2532 2.53165 19.7468 2.32911 19.038 2.32911Z" fill="#19A8D5"/>
<path d="M24.8099 23.6962C24.4049 23.6962 24.1011 23.3924 24.1011 22.9873V20.6582C24.1011 20.2531 24.4049 19.9493 24.8099 19.9493C25.215 19.9493 25.5188 20.2531 25.5188 20.6582V22.9873C25.5188 23.3924 25.215 23.6962 24.8099 23.6962Z" fill="#7FC7DD"/>
<path d="M24.8099 24.2025C24.2023 24.2025 23.5947 23.6962 23.5947 22.9873V20.6582C23.5947 20.0506 24.1011 19.443 24.8099 19.443C25.5188 19.443 26.0251 19.9493 26.0251 20.6582V22.9873C26.0251 23.6962 25.5188 24.2025 24.8099 24.2025ZM24.8099 20.5569C24.7087 20.5569 24.6074 20.6582 24.6074 20.7594V23.0886C24.6074 23.2911 24.9112 23.2911 24.9112 23.0886V20.7594C25.0125 20.6582 24.9112 20.5569 24.8099 20.5569Z" fill="#7FC7DD"/>
<path d="M15.3925 23.6962C14.9874 23.6962 14.6836 23.3924 14.6836 22.9873V20.6582C14.6836 20.2531 14.9874 19.9493 15.3925 19.9493C15.7975 19.9493 16.1013 20.2531 16.1013 20.6582V22.9873C16.1013 23.3924 15.7975 23.6962 15.3925 23.6962Z" fill="#7FC7DD"/>
<path d="M15.3924 24.2025C14.7848 24.2025 14.1772 23.6962 14.1772 22.9873V20.6582C14.1772 20.0506 14.6836 19.443 15.3924 19.443C16.1013 19.443 16.6076 19.9493 16.6076 20.6582V22.9873C16.6076 23.6962 16.1013 24.2025 15.3924 24.2025ZM15.3924 20.5569C15.2912 20.5569 15.1899 20.6582 15.1899 20.7594V23.0886C15.1899 23.2911 15.4937 23.2911 15.4937 23.0886V20.7594C15.595 20.6582 15.4937 20.5569 15.3924 20.5569Z" fill="#7FC7DD"/>
<path d="M22.6834 33.4177C21.2657 33.4177 20.253 32.8101 19.6454 32.4051C18.6328 33.1139 16.2024 34.3291 12.7594 32.1013C12.5568 32 12.4556 31.7975 12.4556 31.4937V30.3798C12.4556 29.9747 12.7594 29.6709 13.1644 29.6709C13.1644 29.6709 14.9872 29.6709 15.7973 28.6582C16.3037 27.9494 17.2151 27.5443 18.2277 27.5443H21.2657C22.1771 27.5443 23.0885 27.9494 23.5948 28.6582C24.4049 29.6709 26.2277 29.6709 26.2277 29.6709C26.6328 29.6709 26.9366 29.9747 26.9366 30.3798V31.4937C26.9366 31.6962 26.8353 31.8987 26.6328 32.1013C25.0125 33.1139 23.6961 33.4177 22.6834 33.4177ZM19.6454 30.8861C19.848 30.8861 20.0505 30.9873 20.1518 31.0886C20.253 31.1899 22.0758 33.2152 25.5189 31.1899V31.0886C24.7087 30.9873 23.291 30.5823 22.4809 29.5696C22.1771 29.1646 21.772 28.962 21.1644 28.962H18.0252C17.5189 28.962 17.0125 29.1646 16.7087 29.5696C15.8986 30.5823 14.5821 30.9873 13.772 31.0886V31.1899C17.2151 33.2152 19.0378 31.1899 19.1391 31.0886C19.2404 30.9873 19.4429 30.8861 19.6454 30.8861Z" fill="#19A8D5"/>
<path d="M16.6074 33.924C15.291 33.924 13.8733 33.4177 12.4555 32.5063C12.1518 32.3038 11.9492 31.8987 11.9492 31.4937V30.3797C11.9492 29.7721 12.4555 29.1645 13.1644 29.1645C13.5695 29.1645 14.7847 28.962 15.3923 28.3544C15.9999 27.5443 17.1138 27.038 18.2277 27.038H21.2657C22.3796 27.038 23.3923 27.5443 23.9999 28.3544C24.5062 29.0633 25.8226 29.1645 26.2277 29.1645C26.8353 29.1645 27.4429 29.6709 27.4429 30.3797V31.4937C27.4429 31.8987 27.2404 32.3038 26.9366 32.5063C25.5188 33.4177 24.1011 33.924 22.7847 33.924C21.4682 33.924 20.4555 33.519 19.7467 33.0126C18.9366 33.519 17.9239 33.924 16.6074 33.924ZM18.1264 28.1519C17.3163 28.1519 16.6074 28.4557 16.1011 29.0633C15.1897 30.2785 13.1644 30.2785 13.0631 30.2785C12.9619 30.2785 12.8606 30.3797 12.8606 30.481V31.5949C12.8606 31.6962 12.8606 31.6962 12.9619 31.6962C14.1771 32.5063 15.3923 32.9114 16.6074 32.9114C17.8226 32.9114 18.734 32.405 19.3416 32L19.6454 31.7975L19.9492 32C20.4555 32.405 21.3669 32.9114 22.6834 32.9114C23.7973 32.9114 25.0125 32.5063 26.329 31.6962L26.4302 31.5949V30.481C26.4302 30.3797 26.329 30.2785 26.2277 30.2785C26.1264 30.2785 24.2024 30.2785 23.1897 29.0633C22.7847 28.4557 22.0758 28.1519 21.2657 28.1519H18.1264ZM22.6834 32.6076C20.9619 32.6076 19.9492 31.5949 19.848 31.4937C19.7467 31.3924 19.6454 31.3924 19.5442 31.4937C19.5442 31.4937 18.5315 32.6076 16.7087 32.6076C15.6961 32.6076 14.6834 32.3038 13.5695 31.6962L13.3669 31.5949V30.8861L13.772 30.7848C14.4809 30.6835 15.6961 30.3797 16.4049 29.4683C16.81 28.962 17.4176 28.6582 18.1264 28.6582H21.2657C21.9745 28.6582 22.5821 28.962 22.9872 29.4683C23.6961 30.3797 25.0125 30.6835 25.6201 30.7848L26.0252 30.8861V31.3924L25.8226 31.5949C24.7087 32.2025 23.5948 32.6076 22.6834 32.6076ZM19.6454 30.3797C19.9492 30.3797 20.3543 30.481 20.5568 30.7848C20.5568 30.7848 21.2657 31.5949 22.6834 31.5949C23.1897 31.5949 23.6961 31.4937 24.2024 31.2911C23.4935 30.9873 22.6834 30.5823 22.1771 29.8734C21.9745 29.6709 21.6707 29.4683 21.2657 29.4683H18.1264C17.7214 29.4683 17.4176 29.5696 17.215 29.8734C16.7087 30.5823 15.8986 30.9873 15.1897 31.2911C15.6961 31.4937 16.2024 31.5949 16.7087 31.5949C18.0252 31.5949 18.734 30.7848 18.8353 30.7848C19.0378 30.481 19.3416 30.3797 19.6454 30.3797Z" fill="#19A8D5"/>
<path d="M19.4432 13.1645C19.0382 13.1645 18.7344 12.8607 18.7344 12.4556V4.35437C18.7344 3.94931 19.0382 3.64551 19.4432 3.64551C19.8483 3.64551 20.1521 3.94931 20.1521 4.35437V12.4556C20.0508 12.8607 19.747 13.1645 19.4432 13.1645Z" fill="#FF0080"/>
<path d="M19.4432 13.6708C18.8356 13.6708 18.228 13.1645 18.228 12.4556V4.35435C18.228 3.74676 18.7344 3.13916 19.4432 3.13916C20.1521 3.13916 20.6584 3.64549 20.6584 4.35435V12.4556C20.5571 13.1645 20.0508 13.6708 19.4432 13.6708ZM19.4432 4.15182C19.342 4.15182 19.2407 4.25308 19.2407 4.35435V12.4556C19.2407 12.6581 19.5445 12.6581 19.5445 12.4556V4.35435C19.5445 4.25308 19.5445 4.15182 19.4432 4.15182Z" fill="#FF0080"/>
<path d="M22.076 7.08862H16.7089C16.3038 7.08862 16 6.78482 16 6.37976C16 5.9747 16.3038 5.6709 16.7089 5.6709H22.076C22.481 5.6709 22.7848 5.9747 22.7848 6.37976C22.7848 6.78482 22.481 7.08862 22.076 7.08862Z" fill="#FF0080"/>
<path d="M22.0759 7.59493H16.7088C16.1012 7.59493 15.4937 7.0886 15.4937 6.37974C15.4937 5.77215 16 5.16455 16.7088 5.16455H22.0759C22.6835 5.16455 23.2911 5.67088 23.2911 6.37974C23.2911 7.0886 22.7848 7.59493 22.0759 7.59493ZM16.7088 6.17721C16.6076 6.17721 16.5063 6.27848 16.5063 6.37974C16.5063 6.48101 16.6076 6.58227 16.7088 6.58227H22.0759C22.1772 6.58227 22.2785 6.48101 22.2785 6.37974C22.2785 6.27848 22.1772 6.17721 22.0759 6.17721H16.7088Z" fill="#FF0080"/>
<path d="M19.4432 13.1645C17.2154 13.1645 15.3926 11.3417 15.3926 9.11389C15.3926 8.70883 15.6964 8.40503 16.1014 8.40503C16.5065 8.40503 16.8103 8.70883 16.8103 9.11389C16.8103 10.6329 18.0255 11.8481 19.5445 11.8481C21.0635 11.8481 22.2787 10.6329 22.2787 9.11389C22.2787 8.70883 22.5825 8.40503 22.9875 8.40503C23.3926 8.40503 23.6964 8.70883 23.6964 9.11389C23.4938 11.3417 21.6711 13.1645 19.4432 13.1645Z" fill="#FF0080"/>
<path d="M19.4432 13.6708C16.9115 13.6708 14.8862 11.6455 14.8862 9.11387C14.8862 8.50628 15.3926 7.89868 16.1014 7.89868C16.709 7.89868 17.2153 8.40501 17.2153 9.11387C17.2153 10.3291 18.228 11.3417 19.4432 11.3417C20.6584 11.3417 21.671 10.3291 21.671 9.11387C21.671 8.50628 22.1774 7.89868 22.8862 7.89868C23.4938 7.89868 24.1014 8.40501 24.1014 9.11387C24.0002 11.6455 21.9748 13.6708 19.4432 13.6708ZM16.0002 8.91134C15.8989 8.91134 15.7976 9.01261 15.7976 9.11387C15.7976 11.0379 17.4179 12.6582 19.3419 12.6582C21.266 12.6582 22.8862 11.0379 22.8862 9.11387C22.8862 8.91134 22.5824 8.91134 22.5824 9.11387C22.5824 10.8354 21.1647 12.3544 19.3419 12.3544C17.5191 12.3544 16.2027 10.8354 16.2027 9.11387C16.2027 9.01261 16.1014 8.91134 16.0002 8.91134Z" fill="#FF0080"/>
</svg>
