<svg width="40" height="40" viewBox="0 0 40 40" fill="none" xmlns="http://www.w3.org/2000/svg">
<path d="M7.83862 14.217C7.83862 14.217 7.27163 20.0577 7.17306 20.0453C3.25078 19.8853 0.115234 16.6392 0.115234 12.6801C0.115234 8.6103 3.42273 5.30261 7.49276 5.30261C11.5628 5.30261 14.8703 8.6103 14.8703 12.6801C14.8703 13.5408 7.83862 14.217 7.83862 14.217Z" fill="#FF0080"/>
<path d="M12.4478 34.5148L14.8326 35.1103L15.9837 30.5059C14.9132 30.4955 14.1519 30.3486 13.5367 30.1593L12.4478 34.5148Z" fill="#19A8D5"/>
<path d="M18.7168 27.523C18.1079 27.7669 17.5685 27.9806 16.6011 28.0354C16.4449 28.0443 16.2801 28.05 16.0991 28.05C15.2006 28.05 14.6334 27.9324 14.1343 27.7671C13.911 27.6931 13.6999 27.6105 13.4813 27.523C12.779 27.242 11.9907 26.9308 10.6724 26.8452L11.0495 29.3557C11.6661 29.449 12.0981 29.6182 12.5687 29.8068C12.8648 29.9253 13.1772 30.049 13.5362 30.1596C14.1514 30.3488 14.9128 30.4958 15.9832 30.5062C16.0231 30.5066 16.058 30.5094 16.0989 30.5094C17.8724 30.5094 18.8067 30.136 19.6291 29.8068C20.0995 29.6184 20.5313 29.4492 21.1475 29.3559L21.524 26.8452C20.2071 26.9308 19.419 27.242 18.7168 27.523Z" fill="#7FC7DD"/>
<path d="M25.6412 13.1104C25.4077 12.8399 25.0632 12.6801 24.7067 12.6801H20.4402L22.2102 5.60048C22.3626 4.99415 22.0349 4.37089 21.45 4.15114L11.4038 0.384277L10.5391 2.68744L19.5586 6.0689L17.9058 12.6803H7.49231C7.13563 12.6803 6.79135 12.8401 6.55783 13.1106C6.3243 13.3811 6.22574 13.7378 6.27512 14.0943L9.96388 38.686C10.05 39.2886 10.5663 39.7313 11.1813 39.7313H21.018C21.6204 39.7313 22.1368 39.2886 22.2352 38.686L25.9239 14.0943C25.9733 13.7376 25.8747 13.3809 25.6412 13.1104ZM19.9605 37.2719H12.2387L8.91863 15.1393H17.2912L14.1346 27.7671C14.6337 27.9325 15.2009 28.05 16.0994 28.05C16.2802 28.05 16.4451 28.0443 16.6015 28.0354L19.8254 15.1393H23.2804L19.9605 37.2719Z" fill="#19A8D5"/>
</svg>
