<svg width="40" height="40" viewBox="0 0 40 40" fill="none" xmlns="http://www.w3.org/2000/svg">
<path d="M23.0958 15.0537C23.0958 12.7687 22.2069 10.6206 20.5922 9.00661C19.9229 8.33695 19.1614 7.79742 18.3332 7.39183L18.2004 6.63489C17.8315 6.70015 17.4735 6.79885 17.1258 6.91156C16.7746 6.79805 16.4177 6.69955 16.0523 6.63489L15.9194 7.39243C15.0858 7.80083 14.3272 8.33935 13.6604 9.00661C12.0456 10.6208 11.1567 12.7689 11.1567 15.0537C11.1567 17.3385 12.0456 19.4854 13.6604 21.0996C14.3286 21.7683 15.0894 22.3082 15.9196 22.7152L16.0521 23.4713C16.4193 23.4069 16.7776 23.3082 17.127 23.1955C17.4787 23.309 17.8361 23.4073 18.2002 23.4713L18.3329 22.715C19.1674 22.3056 19.9259 21.7663 20.5922 21.0996C22.2067 19.4854 23.0958 17.3387 23.0958 15.0537ZM17.1258 20.5147C16.498 20.2206 15.9268 19.8272 15.4295 19.3305C14.2876 18.188 13.659 16.6705 13.659 15.0539C13.659 13.4373 14.2876 11.9185 15.4295 10.7761C15.9244 10.2807 16.493 9.88887 17.127 9.59238C17.7542 9.88546 18.3255 10.2782 18.8228 10.7761C19.9647 11.9187 20.5934 13.4373 20.5934 15.0539C20.5934 16.6705 19.9647 18.1882 18.8228 19.3305C18.3275 19.8252 17.7586 20.2176 17.1258 20.5147Z" fill="#7FC7DD"/>
<path d="M24.2039 7.9752C20.3017 4.07239 13.9515 4.07239 10.0483 7.9752C8.15723 9.86545 7.11621 12.3789 7.11621 15.0537C7.11621 17.7271 8.15723 20.2406 10.0481 22.131C11.9994 24.0823 14.5623 25.0587 17.126 25.0587C19.6897 25.0587 22.2524 24.0823 24.2039 22.131C26.0947 20.2406 27.1358 17.7271 27.1358 15.0537C27.1358 12.3789 26.0947 9.86545 24.2039 7.9752ZM24.5224 13.8025H18.3772V7.65729C19.9059 7.91274 21.3165 8.62704 22.4346 9.74453C23.5527 10.8622 24.2672 12.2728 24.5224 13.8025ZM11.8174 9.74453C12.9355 8.62704 14.3459 7.91274 15.8748 7.65729V13.8025H9.72956C9.98481 12.2728 10.6993 10.8622 11.8174 9.74453ZM9.72956 16.3049H15.8748V22.4465C14.3883 22.1971 12.9623 21.5064 11.8174 20.3617C10.6993 19.244 9.98501 17.8336 9.72956 16.3049ZM22.4346 20.3617C21.2897 21.5066 19.8637 22.1971 18.3772 22.4465V16.3049H24.5224C24.267 17.8336 23.5527 19.244 22.4346 20.3617Z" fill="#19A8D5"/>
<path d="M32.1409 40.0782H2.11157C1.4205 40.0782 0.860352 39.5186 0.860352 38.8269V1.29028C0.860352 0.598609 1.4205 0.0390625 2.11157 0.0390625H32.1409C32.832 0.0390625 33.3921 0.598609 33.3921 1.29028V38.8269C33.3921 39.5186 32.832 40.0782 32.1409 40.0782ZM3.3628 37.5757H30.8897V2.54151H3.3628V37.5757Z" fill="#19A8D5"/>
<path d="M8.36768 27.5612H25.8848V30.0636H8.36768V27.5612Z" fill="#FF0080"/>
<path d="M10.8701 32.566H23.3823V35.0685H10.8701V32.566Z" fill="#FF0080"/>
</svg>
